<svg width="200" height="150" viewBox="0 0 200 150" fill="none" xmlns="http://www.w3.org/2000/svg">
<rect width="200" height="150" fill="black" fill-opacity="0.99"/>
<path d="M41.259 67.4903L35.7591 100.65C35.2941 103.443 35.0641 104.84 35.8366 105.752C36.6038 106.667 38.0117 106.667 40.8301 106.667H41.8686C43.9947 106.667 45.0565 106.667 45.7824 106.036C46.5057 105.403 46.6581 104.347 46.9578 102.231L48.1668 93.7318C48.2624 93.0601 48.3089 92.7243 48.3838 92.4375C48.6434 91.4325 49.2011 90.5297 49.9836 89.8477C50.7661 89.1657 51.7367 88.7366 52.7677 88.6168C53.0596 88.5832 53.398 88.5832 54.0723 88.5832H57.0741C60.9647 88.5763 64.7372 87.2463 67.7718 84.8117C70.8065 82.377 72.9227 78.9826 73.7728 75.186C75.514 67.4928 69.6963 60.1665 61.8455 60.1665H49.8589C46.9811 60.1665 45.5447 60.1665 44.4081 60.7736C43.7622 61.1198 43.1939 61.6003 42.7495 62.1867C41.9668 63.2123 41.7317 64.6383 41.259 67.4903Z" stroke="white" stroke-width="3.875" stroke-linecap="round" stroke-linejoin="round"/>
<path d="M46.2932 105.375L45.7042 108.816C45.4329 110.392 46.66 111.833 48.2772 111.833H53.418C54.6968 111.833 55.7869 110.919 55.9962 109.674L57.882 98.4904C58.0887 97.2452 59.1814 96.3333 60.4576 96.3333H65.1154C71.783 96.3333 77.5567 91.7531 79.0034 85.3154C80.016 80.8075 77.8125 76.4675 74.0821 74.375" stroke="white" stroke-width="3.875" stroke-linecap="round" stroke-linejoin="round"/>
<path d="M98.92 77.11C97.52 77.11 96.58 76.32 96.38 75.1L97.24 74.89C97.39 75.83 98.05 76.32 98.95 76.32C99.72 76.32 100.32 75.83 100.32 75.12C100.32 74.38 99.67 74.09 98.74 73.73C97.58 73.29 96.81 72.79 96.81 71.73C96.81 70.68 97.64 69.91 98.89 69.91C99.77 69.91 100.46 70.32 100.88 71.1L100.18 71.53C99.87 70.99 99.43 70.69 98.86 70.69C98.17 70.69 97.69 71.12 97.69 71.71C97.69 72.36 98.24 72.64 99.21 73C100.42 73.46 101.19 73.97 101.19 75.07C101.19 76.25 100.25 77.11 98.92 77.11ZM104.025 77.08C102.955 77.08 102.305 76.43 102.305 75.19V72.07H103.145V74.89C103.145 75.88 103.525 76.34 104.265 76.34C105.085 76.34 105.545 75.78 105.545 74.52V72.07H106.385V77H105.545V76.35C105.21 76.83 104.665 77.08 104.025 77.08ZM110.253 77.08C109.548 77.08 109.008 76.8 108.673 76.3V77H107.833V70.03H108.673V72.78C108.993 72.3 109.548 71.99 110.253 71.99C111.493 71.99 112.493 72.98 112.493 74.53C112.493 75.98 111.593 77.08 110.253 77.08ZM108.603 74.53C108.603 75.57 109.223 76.3 110.113 76.3C111.013 76.3 111.643 75.57 111.643 74.53C111.643 73.49 111.013 72.76 110.113 72.76C109.223 72.76 108.603 73.49 108.603 74.53ZM113.702 77V72.07H114.552V72.79C114.872 72.21 115.427 71.99 115.962 71.99C116.627 71.99 117.122 72.27 117.397 72.835C117.732 72.27 118.237 71.99 118.912 71.99C120.132 71.99 120.602 72.91 120.602 74V77H119.762V74.2C119.762 73.28 119.472 72.72 118.722 72.72C118.002 72.72 117.582 73.27 117.582 74.35V77H116.732V74.13C116.732 73.18 116.372 72.72 115.712 72.72C114.982 72.72 114.552 73.28 114.552 74.35V77H113.702ZM121.974 77V72.07H122.814V77H121.974ZM121.894 71.18V70.03H122.894V71.18H121.894ZM126.01 77.08C125.3 77.08 124.77 76.69 124.77 75.74V72.73H123.75V72.07H124.77V70.75L125.63 70.27V72.07H126.77V72.73H125.63V75.52C125.63 76.07 125.78 76.38 126.23 76.38C126.36 76.38 126.56 76.35 126.77 76.29V76.95C126.52 77.04 126.25 77.08 126.01 77.08ZM133.71 77L133.67 76.3C133.33 76.815 132.77 77.08 132.08 77.08C130.95 77.08 130.24 76.46 130.24 75.53C130.24 74.98 130.48 74.61 130.83 74.39C131.18 74.17 131.64 74.09 132.13 74.09H133.65V73.91C133.65 73.15 133.22 72.72 132.4 72.72C131.86 72.72 131.41 72.92 130.97 73.44L130.36 72.92C130.9 72.28 131.62 71.99 132.46 71.99C133.75 71.99 134.49 72.69 134.49 73.91V77H133.71ZM131.09 75.54C131.09 76.06 131.5 76.39 132.16 76.39C132.97 76.39 133.65 75.77 133.65 74.92V74.73H132.25C131.95 74.73 131.61 74.77 131.37 74.94C131.19 75.07 131.09 75.27 131.09 75.54ZM138.29 71.99C139.63 71.99 140.53 73.09 140.53 74.54C140.53 76.09 139.53 77.08 138.29 77.08C137.585 77.08 137.03 76.77 136.71 76.29V79.04H135.87V72.07H136.71V72.77C137.045 72.27 137.585 71.99 138.29 71.99ZM136.64 74.54C136.64 75.58 137.26 76.31 138.15 76.31C139.05 76.31 139.68 75.58 139.68 74.54C139.68 73.5 139.05 72.77 138.15 72.77C137.26 72.77 136.64 73.5 136.64 74.54ZM144.16 71.99C145.5 71.99 146.4 73.09 146.4 74.54C146.4 76.09 145.4 77.08 144.16 77.08C143.455 77.08 142.9 76.77 142.58 76.29V79.04H141.74V72.07H142.58V72.77C142.915 72.27 143.455 71.99 144.16 71.99ZM142.51 74.54C142.51 75.58 143.13 76.31 144.02 76.31C144.92 76.31 145.55 75.58 145.55 74.54C145.55 73.5 144.92 72.77 144.02 72.77C143.13 72.77 142.51 73.5 142.51 74.54ZM148.599 77.08C147.999 77.08 147.589 76.72 147.589 75.91V70.03H148.429V75.75C148.429 76.14 148.599 76.3 148.869 76.3C148.989 76.3 149.139 76.27 149.299 76.22V76.94C149.069 77.03 148.799 77.08 148.599 77.08ZM150.294 77V72.07H151.134V77H150.294ZM150.214 71.18V70.03H151.214V71.18H150.214ZM154.61 77.08C153.14 77.08 152.33 75.91 152.33 74.53C152.33 73.16 153.14 71.99 154.61 71.99C155.54 71.99 156.27 72.44 156.61 73.37L155.86 73.66C155.67 73.1 155.26 72.72 154.61 72.72C153.62 72.72 153.17 73.6 153.17 74.53C153.17 75.47 153.62 76.34 154.61 76.34C155.26 76.34 155.67 75.97 155.86 75.4L156.61 75.69C156.27 76.62 155.54 77.08 154.61 77.08ZM160.976 77L160.936 76.3C160.596 76.815 160.036 77.08 159.346 77.08C158.216 77.08 157.506 76.46 157.506 75.53C157.506 74.98 157.746 74.61 158.096 74.39C158.446 74.17 158.906 74.09 159.396 74.09H160.916V73.91C160.916 73.15 160.486 72.72 159.666 72.72C159.126 72.72 158.676 72.92 158.236 73.44L157.626 72.92C158.166 72.28 158.886 71.99 159.726 71.99C161.016 71.99 161.756 72.69 161.756 73.91V77H160.976ZM158.356 75.54C158.356 76.06 158.766 76.39 159.426 76.39C160.236 76.39 160.916 75.77 160.916 74.92V74.73H159.516C159.216 74.73 158.876 74.77 158.636 74.94C158.456 75.07 158.356 75.27 158.356 75.54ZM164.906 77.08C164.196 77.08 163.666 76.69 163.666 75.74V72.73H162.646V72.07H163.666V70.75L164.526 70.27V72.07H165.666V72.73H164.526V75.52C164.526 76.07 164.676 76.38 165.126 76.38C165.256 76.38 165.456 76.35 165.666 76.29V76.95C165.416 77.04 165.146 77.08 164.906 77.08ZM166.759 77V72.07H167.599V77H166.759ZM166.679 71.18V70.03H167.679V71.18H166.679ZM171.185 77.08C169.795 77.08 168.785 76.02 168.785 74.53C168.785 73.05 169.775 71.99 171.185 71.99C172.575 71.99 173.575 73.05 173.575 74.53C173.575 76.01 172.565 77.08 171.185 77.08ZM169.625 74.53C169.625 75.62 170.235 76.33 171.185 76.33C172.125 76.33 172.725 75.62 172.725 74.53C172.725 73.43 172.125 72.73 171.185 72.73C170.235 72.73 169.625 73.44 169.625 74.53ZM174.786 77V72.07H175.636V72.71C175.966 72.23 176.511 71.99 177.146 71.99C178.226 71.99 178.876 72.63 178.876 73.87V77H178.026V74.18C178.026 73.18 177.656 72.72 176.916 72.72C176.096 72.72 175.636 73.28 175.636 74.54V77H174.786ZM97.25 89V84.73H96.23V84.07H97.26V83.43C97.26 82.31 97.86 81.95 98.64 81.95C99 81.95 99.27 82.02 99.52 82.15L99.24 82.79C99.09 82.71 98.91 82.66 98.73 82.66C98.3 82.66 98.1 82.94 98.1 83.43V84.07H99.25V84.73H98.1V89H97.25ZM101.984 89.08C100.434 89.08 99.6738 87.94 99.6738 86.57C99.6738 85.2 100.414 83.99 101.904 83.99C103.424 83.99 104.094 85.15 104.094 86.35C104.094 86.41 104.084 86.65 104.064 86.79H100.514C100.554 87.75 101.094 88.31 101.994 88.31C102.564 88.31 102.964 88.13 103.344 87.72L103.934 88.24C103.384 88.82 102.794 89.08 101.984 89.08ZM100.504 86.16H103.279L103.284 86.04C103.284 85.39 102.844 84.7 101.924 84.7C101.054 84.7 100.564 85.36 100.504 86.16ZM107.394 89.08C105.844 89.08 105.084 87.94 105.084 86.57C105.084 85.2 105.824 83.99 107.314 83.99C108.834 83.99 109.504 85.15 109.504 86.35C109.504 86.41 109.494 86.65 109.474 86.79H105.924C105.964 87.75 106.504 88.31 107.404 88.31C107.974 88.31 108.374 88.13 108.754 87.72L109.344 88.24C108.794 88.82 108.204 89.08 107.394 89.08ZM105.914 86.16H108.689L108.694 86.04C108.694 85.39 108.254 84.7 107.334 84.7C106.464 84.7 105.974 85.36 105.914 86.16ZM114.842 89L112.822 84.07H113.752L115.192 87.91L116.642 84.07H117.562L115.552 89H114.842ZM118.507 89V84.07H119.347V89H118.507ZM118.427 83.18V82.03H119.427V83.18H118.427ZM124.013 89L123.973 88.3C123.633 88.815 123.073 89.08 122.383 89.08C121.253 89.08 120.543 88.46 120.543 87.53C120.543 86.98 120.783 86.61 121.133 86.39C121.483 86.17 121.943 86.09 122.433 86.09H123.953V85.91C123.953 85.15 123.523 84.72 122.703 84.72C122.163 84.72 121.713 84.92 121.273 85.44L120.663 84.92C121.203 84.28 121.923 83.99 122.763 83.99C124.053 83.99 124.793 84.69 124.793 85.91V89H124.013ZM121.393 87.54C121.393 88.06 121.803 88.39 122.463 88.39C123.273 88.39 123.953 87.77 123.953 86.92V86.73H122.553C122.253 86.73 121.913 86.77 121.673 86.94C121.493 87.07 121.393 87.27 121.393 87.54ZM128.841 89V82.03H130.921C132.421 82.03 133.241 82.71 133.241 84C133.241 85.29 132.411 86 130.921 86H129.711V89H128.841ZM129.711 85.22H130.831C131.791 85.22 132.361 84.84 132.361 84.01C132.361 83.2 131.821 82.82 130.831 82.82H129.711V85.22ZM137.392 89L137.352 88.3C137.012 88.815 136.452 89.08 135.762 89.08C134.632 89.08 133.922 88.46 133.922 87.53C133.922 86.98 134.162 86.61 134.512 86.39C134.862 86.17 135.322 86.09 135.812 86.09H137.332V85.91C137.332 85.15 136.902 84.72 136.082 84.72C135.542 84.72 135.092 84.92 134.652 85.44L134.042 84.92C134.582 84.28 135.302 83.99 136.142 83.99C137.432 83.99 138.172 84.69 138.172 85.91V89H137.392ZM134.772 87.54C134.772 88.06 135.182 88.39 135.842 88.39C136.652 88.39 137.332 87.77 137.332 86.92V86.73H135.932C135.632 86.73 135.292 86.77 135.052 86.94C134.872 87.07 134.772 87.27 134.772 87.54ZM139.915 91.03L140.855 88.76L138.935 84.07H139.865L141.305 87.91L142.755 84.07H143.675L140.835 91.03H139.915ZM144.7 89V82.03H146.78C148.28 82.03 149.1 82.71 149.1 84C149.1 85.29 148.27 86 146.78 86H145.57V89H144.7ZM145.57 85.22H146.69C147.65 85.22 148.22 84.84 148.22 84.01C148.22 83.2 147.68 82.82 146.69 82.82H145.57V85.22ZM153.251 89L153.211 88.3C152.871 88.815 152.311 89.08 151.621 89.08C150.491 89.08 149.781 88.46 149.781 87.53C149.781 86.98 150.021 86.61 150.371 86.39C150.721 86.17 151.181 86.09 151.671 86.09H153.191V85.91C153.191 85.15 152.761 84.72 151.941 84.72C151.401 84.72 150.951 84.92 150.511 85.44L149.901 84.92C150.441 84.28 151.161 83.99 152.001 83.99C153.291 83.99 154.031 84.69 154.031 85.91V89H153.251ZM150.631 87.54C150.631 88.06 151.041 88.39 151.701 88.39C152.511 88.39 153.191 87.77 153.191 86.92V86.73H151.791C151.491 86.73 151.151 86.77 150.911 86.94C150.731 87.07 150.631 87.27 150.631 87.54ZM156.401 89.08C155.801 89.08 155.391 88.72 155.391 87.91V82.03H156.231V87.75C156.231 88.14 156.401 88.3 156.671 88.3C156.791 88.3 156.941 88.27 157.101 88.22V88.94C156.871 89.03 156.601 89.08 156.401 89.08ZM99.14 101.08C98.435 101.08 97.895 100.8 97.56 100.3V101H96.72V94.03H97.56V96.78C97.88 96.3 98.435 95.99 99.14 95.99C100.38 95.99 101.38 96.98 101.38 98.53C101.38 99.98 100.48 101.08 99.14 101.08ZM97.49 98.53C97.49 99.57 98.11 100.3 99 100.3C99.9 100.3 100.53 99.57 100.53 98.53C100.53 97.49 99.9 96.76 99 96.76C98.11 96.76 97.49 97.49 97.49 98.53ZM104.249 101.08C103.179 101.08 102.529 100.43 102.529 99.19V96.07H103.369V98.89C103.369 99.88 103.749 100.34 104.489 100.34C105.309 100.34 105.769 99.78 105.769 98.52V96.07H106.609V101H105.769V100.35C105.434 100.83 104.889 101.08 104.249 101.08ZM109.828 101.08C109.118 101.08 108.588 100.69 108.588 99.74V96.73H107.568V96.07H108.588V94.75L109.448 94.27V96.07H110.588V96.73H109.448V99.52C109.448 100.07 109.598 100.38 110.048 100.38C110.178 100.38 110.378 100.35 110.588 100.29V100.95C110.338 101.04 110.068 101.08 109.828 101.08ZM113.461 101.08C112.751 101.08 112.221 100.69 112.221 99.74V96.73H111.201V96.07H112.221V94.75L113.081 94.27V96.07H114.221V96.73H113.081V99.52C113.081 100.07 113.231 100.38 113.681 100.38C113.811 100.38 114.011 100.35 114.221 100.29V100.95C113.971 101.04 113.701 101.08 113.461 101.08ZM117.357 101.08C115.967 101.08 114.957 100.02 114.957 98.53C114.957 97.05 115.947 95.99 117.357 95.99C118.747 95.99 119.747 97.05 119.747 98.53C119.747 100.01 118.737 101.08 117.357 101.08ZM115.797 98.53C115.797 99.62 116.407 100.33 117.357 100.33C118.297 100.33 118.897 99.62 118.897 98.53C118.897 97.43 118.297 96.73 117.357 96.73C116.407 96.73 115.797 97.44 115.797 98.53ZM120.958 101V96.07H121.808V96.71C122.138 96.23 122.683 95.99 123.318 95.99C124.398 95.99 125.048 96.63 125.048 97.87V101H124.198V98.18C124.198 97.18 123.828 96.72 123.088 96.72C122.268 96.72 121.808 97.28 121.808 98.54V101H120.958ZM131.445 101.08C130.74 101.08 130.2 100.8 129.865 100.3V101H129.025V94.03H129.865V96.78C130.185 96.3 130.74 95.99 131.445 95.99C132.685 95.99 133.685 96.98 133.685 98.53C133.685 99.98 132.785 101.08 131.445 101.08ZM129.795 98.53C129.795 99.57 130.415 100.3 131.305 100.3C132.205 100.3 132.835 99.57 132.835 98.53C132.835 97.49 132.205 96.76 131.305 96.76C130.415 96.76 129.795 97.49 129.795 98.53ZM136.984 101.08C135.434 101.08 134.674 99.94 134.674 98.57C134.674 97.2 135.414 95.99 136.904 95.99C138.424 95.99 139.094 97.15 139.094 98.35C139.094 98.41 139.084 98.65 139.064 98.79H135.514C135.554 99.75 136.094 100.31 136.994 100.31C137.564 100.31 137.964 100.13 138.344 99.72L138.934 100.24C138.384 100.82 137.794 101.08 136.984 101.08ZM135.504 98.16H138.279L138.284 98.04C138.284 97.39 137.844 96.7 136.924 96.7C136.054 96.7 135.564 97.36 135.504 98.16ZM141.294 101.08C140.694 101.08 140.284 100.72 140.284 99.91V94.03H141.124V99.75C141.124 100.14 141.294 100.3 141.564 100.3C141.684 100.3 141.834 100.27 141.994 100.22V100.94C141.764 101.03 141.494 101.08 141.294 101.08ZM145.071 101.08C143.681 101.08 142.671 100.02 142.671 98.53C142.671 97.05 143.661 95.99 145.071 95.99C146.461 95.99 147.461 97.05 147.461 98.53C147.461 100.01 146.451 101.08 145.071 101.08ZM143.511 98.53C143.511 99.62 144.121 100.33 145.071 100.33C146.011 100.33 146.611 99.62 146.611 98.53C146.611 97.43 146.011 96.73 145.071 96.73C144.121 96.73 143.511 97.44 143.511 98.53ZM149.644 101L148.184 96.07H149.084L150.084 99.72L151.264 96.07H152.014L153.194 99.7L154.204 96.07H155.104L153.634 101H152.854L151.644 97.25L150.434 101H149.644Z" fill="white"/>
<path d="M22.648 33.192C21.288 33.192 20.088 32.92 19.048 32.376C18.024 31.816 17.224 31.024 16.648 30L19.288 27.84C19.672 28.448 20.16 28.952 20.752 29.352C21.36 29.736 21.968 29.928 22.576 29.928C23.904 29.928 24.568 29.432 24.568 28.44C24.568 27.976 24.4 27.592 24.064 27.288C23.728 26.968 23.168 26.632 22.384 26.28L21.304 25.776C18.68 24.64 17.368 22.896 17.368 20.544C17.368 19.152 17.88 18.008 18.904 17.112C19.928 16.216 21.128 15.768 22.504 15.768C23.512 15.768 24.392 15.928 25.144 16.248C25.912 16.568 26.624 17.12 27.28 17.904L24.928 20.4C24.496 19.888 24.104 19.536 23.752 19.344C23.4 19.136 22.984 19.032 22.504 19.032C22.056 19.032 21.672 19.16 21.352 19.416C21.032 19.656 20.872 20 20.872 20.448C20.872 20.912 21.048 21.304 21.4 21.624C21.752 21.928 22.36 22.28 23.224 22.68L24.28 23.16C26.808 24.264 28.072 25.944 28.072 28.2C28.072 29.688 27.568 30.896 26.56 31.824C25.552 32.736 24.248 33.192 22.648 33.192ZM33.3374 33V19.392H29.0894V15.96H41.0894V19.392H36.8174V33H33.3374ZM43.4903 33V15.96H53.9063V19.392H46.9703V22.752H52.4663V26.112H46.9703V29.568H53.9063V33H43.4903ZM57.0138 33V15.96H62.4618C64.1418 15.96 65.5338 16.504 66.6378 17.592C67.7578 18.68 68.3177 20.024 68.3177 21.624C68.3177 23.224 67.7578 24.568 66.6378 25.656C65.5338 26.744 64.1418 27.288 62.4618 27.288H60.4938V33H57.0138ZM60.4938 24.048H62.4138C63.1658 24.048 63.7658 23.816 64.2138 23.352C64.6778 22.888 64.9098 22.312 64.9098 21.624C64.9098 20.936 64.6778 20.368 64.2138 19.92C63.7658 19.456 63.1658 19.224 62.4138 19.224H60.4938V24.048ZM74.0883 33L79.6323 26.424C78.4643 26.296 77.4483 25.712 76.5843 24.672C75.7363 23.632 75.3123 22.472 75.3123 21.192C75.3123 19.672 75.8483 18.392 76.9203 17.352C78.0083 16.296 79.3123 15.768 80.8323 15.768C82.3683 15.768 83.6803 16.296 84.7683 17.352C85.8563 18.392 86.4003 19.672 86.4003 21.192C86.4003 22.568 85.8483 23.896 84.7443 25.176L80.8323 29.928H86.3763V33H74.0883ZM80.8323 23.544C81.5043 23.544 82.0483 23.32 82.4643 22.872C82.8803 22.424 83.0883 21.864 83.0883 21.192C83.0883 20.504 82.8803 19.944 82.4643 19.512C82.0483 19.064 81.5043 18.84 80.8323 18.84C80.1763 18.84 79.6403 19.064 79.2243 19.512C78.8083 19.944 78.6003 20.504 78.6003 21.192C78.6003 21.864 78.8083 22.424 79.2243 22.872C79.6403 23.32 80.1763 23.544 80.8323 23.544ZM91.2964 25.632C90.6404 25.632 90.0724 25.4 89.5924 24.936C89.1284 24.456 88.8964 23.88 88.8964 23.208C88.8964 22.536 89.1364 21.968 89.6164 21.504C90.0964 21.04 90.6564 20.808 91.2964 20.808C91.9524 20.808 92.5204 21.04 93.0004 21.504C93.4804 21.968 93.7204 22.536 93.7204 23.208C93.7204 23.88 93.4804 24.456 93.0004 24.936C92.5364 25.4 91.9684 25.632 91.2964 25.632ZM91.2964 33.192C90.6404 33.192 90.0724 32.96 89.5924 32.496C89.1284 32.016 88.8964 31.44 88.8964 30.768C88.8964 30.096 89.1364 29.528 89.6164 29.064C90.0964 28.6 90.6564 28.368 91.2964 28.368C91.9524 28.368 92.5204 28.6 93.0004 29.064C93.4804 29.528 93.7204 30.096 93.7204 30.768C93.7204 31.44 93.4804 32.016 93.0004 32.496C92.5364 32.96 91.9684 33.192 91.2964 33.192Z" fill="white"/>
</svg>
