<svg width="200" height="150" viewBox="0 0 200 150" fill="none" xmlns="http://www.w3.org/2000/svg">
<rect width="200" height="150" fill="black" fill-opacity="0.99"/>
<path d="M24.3317 60V54.424H27.9877V55.056H25.0357V56.84H27.5957V57.472H25.0357V60H24.3317ZM28.7911 60V56.056H29.4631V60H28.7911ZM28.7271 55.344V54.424H29.5271V55.344H28.7271ZM30.5958 60V56.056H31.2758V56.616C31.5518 56.216 32.0398 55.992 32.4518 55.992C32.6678 55.992 32.8838 56.04 33.1158 56.168L32.7798 56.776C32.6518 56.712 32.4598 56.664 32.2998 56.664C31.9158 56.664 31.5078 56.864 31.3478 57.368C31.2998 57.536 31.2758 57.712 31.2758 58.152V60H30.5958ZM35.0406 60.064C34.2326 60.064 33.6726 59.656 33.4086 59.2L33.8806 58.8C34.0806 59.208 34.4966 59.496 35.0486 59.496C35.5526 59.496 35.8726 59.272 35.8726 58.904C35.8726 58.456 35.4166 58.336 34.8886 58.2C34.2246 58.032 33.6166 57.8 33.6166 57.096C33.6166 56.432 34.1686 55.992 34.9766 55.992C35.5926 55.992 36.1046 56.248 36.3926 56.736L35.8806 57.04C35.6886 56.72 35.3606 56.536 34.9526 56.536C34.5526 56.536 34.2406 56.712 34.2406 57.032C34.2406 57.344 34.5286 57.472 35.0806 57.6C35.7446 57.76 36.5366 57.944 36.5366 58.832C36.5366 59.576 35.9446 60.064 35.0406 60.064ZM38.9105 60.064C38.3425 60.064 37.9185 59.752 37.9185 58.992V56.584H37.1025V56.056H37.9185V55L38.6065 54.616V56.056H39.5185V56.584H38.6065V58.816C38.6065 59.256 38.7265 59.504 39.0865 59.504C39.1905 59.504 39.3505 59.48 39.5185 59.432V59.96C39.3185 60.032 39.1025 60.064 38.9105 60.064ZM42.4788 60V56.056H43.1588V56.568C43.4228 56.184 43.8588 55.992 44.3668 55.992C45.2308 55.992 45.7508 56.504 45.7508 57.496V60H45.0708V57.744C45.0708 56.944 44.7748 56.576 44.1828 56.576C43.5268 56.576 43.1588 57.024 43.1588 58.032V60H42.4788ZM49.4458 60L49.4138 59.44C49.1418 59.852 48.6938 60.064 48.1418 60.064C47.2378 60.064 46.6698 59.568 46.6698 58.824C46.6698 58.384 46.8618 58.088 47.1418 57.912C47.4218 57.736 47.7898 57.672 48.1818 57.672H49.3978V57.528C49.3978 56.92 49.0538 56.576 48.3978 56.576C47.9658 56.576 47.6058 56.736 47.2538 57.152L46.7658 56.736C47.1978 56.224 47.7738 55.992 48.4458 55.992C49.4778 55.992 50.0698 56.552 50.0698 57.528V60H49.4458ZM47.3498 58.832C47.3498 59.248 47.6778 59.512 48.2058 59.512C48.8538 59.512 49.3978 59.016 49.3978 58.336V58.184H48.2778C48.0378 58.184 47.7658 58.216 47.5738 58.352C47.4298 58.456 47.3498 58.616 47.3498 58.832ZM51.1741 60V56.056H51.8541V56.632C52.1101 56.168 52.5541 55.992 52.9821 55.992C53.5141 55.992 53.9101 56.216 54.1301 56.668C54.3981 56.216 54.8021 55.992 55.3421 55.992C56.3181 55.992 56.6941 56.728 56.6941 57.6V60H56.0221V57.76C56.0221 57.024 55.7901 56.576 55.1901 56.576C54.6141 56.576 54.2781 57.016 54.2781 57.88V60H53.5981V57.704C53.5981 56.944 53.3101 56.576 52.7821 56.576C52.1981 56.576 51.8541 57.024 51.8541 57.88V60H51.1741ZM59.4711 60.064C58.2311 60.064 57.6231 59.152 57.6231 58.056C57.6231 56.96 58.2151 55.992 59.4071 55.992C60.6231 55.992 61.1591 56.92 61.1591 57.88C61.1591 57.928 61.1511 58.12 61.1351 58.232H58.2951C58.3271 59 58.7591 59.448 59.4791 59.448C59.9351 59.448 60.2551 59.304 60.5591 58.976L61.0311 59.392C60.5911 59.856 60.1191 60.064 59.4711 60.064ZM58.2871 57.728H60.5071L60.5111 57.632C60.5111 57.112 60.1591 56.56 59.4231 56.56C58.7271 56.56 58.3351 57.088 58.2871 57.728Z" fill="white" fill-opacity="0.5"/>
<rect x="16.5" y="50.5" width="76" height="14" stroke="white"/>
<path d="M24.3317 83V77.424H25.0357V82.368H27.5317V83H24.3317ZM30.8286 83L30.7966 82.44C30.5246 82.852 30.0766 83.064 29.5246 83.064C28.6206 83.064 28.0526 82.568 28.0526 81.824C28.0526 81.384 28.2446 81.088 28.5246 80.912C28.8046 80.736 29.1726 80.672 29.5646 80.672H30.7806V80.528C30.7806 79.92 30.4366 79.576 29.7806 79.576C29.3486 79.576 28.9886 79.736 28.6366 80.152L28.1486 79.736C28.5806 79.224 29.1566 78.992 29.8286 78.992C30.8606 78.992 31.4526 79.552 31.4526 80.528V83H30.8286ZM28.7326 81.832C28.7326 82.248 29.0606 82.512 29.5886 82.512C30.2366 82.512 30.7806 82.016 30.7806 81.336V81.184H29.6606C29.4206 81.184 29.1486 81.216 28.9566 81.352C28.8126 81.456 28.7326 81.616 28.7326 81.832ZM33.861 83.064C33.053 83.064 32.493 82.656 32.229 82.2L32.701 81.8C32.901 82.208 33.317 82.496 33.869 82.496C34.373 82.496 34.693 82.272 34.693 81.904C34.693 81.456 34.237 81.336 33.709 81.2C33.045 81.032 32.437 80.8 32.437 80.096C32.437 79.432 32.989 78.992 33.797 78.992C34.413 78.992 34.925 79.248 35.213 79.736L34.701 80.04C34.509 79.72 34.181 79.536 33.773 79.536C33.373 79.536 33.061 79.712 33.061 80.032C33.061 80.344 33.349 80.472 33.901 80.6C34.565 80.76 35.357 80.944 35.357 81.832C35.357 82.576 34.765 83.064 33.861 83.064ZM37.7308 83.064C37.1628 83.064 36.7388 82.752 36.7388 81.992V79.584H35.9228V79.056H36.7388V78L37.4268 77.616V79.056H38.3388V79.584H37.4268V81.816C37.4268 82.256 37.5468 82.504 37.9068 82.504C38.0108 82.504 38.1708 82.48 38.3388 82.432V82.96C38.1388 83.032 37.9228 83.064 37.7308 83.064ZM41.2991 83V79.056H41.9791V79.568C42.2431 79.184 42.6791 78.992 43.1871 78.992C44.0511 78.992 44.5711 79.504 44.5711 80.496V83H43.8911V80.744C43.8911 79.944 43.5951 79.576 43.0031 79.576C42.3471 79.576 41.9791 80.024 41.9791 81.032V83H41.2991ZM48.2661 83L48.2341 82.44C47.9621 82.852 47.5141 83.064 46.9621 83.064C46.0581 83.064 45.4901 82.568 45.4901 81.824C45.4901 81.384 45.6821 81.088 45.9621 80.912C46.2421 80.736 46.6101 80.672 47.0021 80.672H48.2181V80.528C48.2181 79.92 47.8741 79.576 47.2181 79.576C46.7861 79.576 46.4261 79.736 46.0741 80.152L45.5861 79.736C46.0181 79.224 46.5941 78.992 47.2661 78.992C48.2981 78.992 48.8901 79.552 48.8901 80.528V83H48.2661ZM46.1701 81.832C46.1701 82.248 46.4981 82.512 47.0261 82.512C47.6741 82.512 48.2181 82.016 48.2181 81.336V81.184H47.0981C46.8581 81.184 46.5861 81.216 46.3941 81.352C46.2501 81.456 46.1701 81.616 46.1701 81.832ZM49.9945 83V79.056H50.6745V79.632C50.9305 79.168 51.3745 78.992 51.8025 78.992C52.3345 78.992 52.7305 79.216 52.9505 79.668C53.2185 79.216 53.6225 78.992 54.1625 78.992C55.1385 78.992 55.5145 79.728 55.5145 80.6V83H54.8425V80.76C54.8425 80.024 54.6105 79.576 54.0105 79.576C53.4345 79.576 53.0985 80.016 53.0985 80.88V83H52.4185V80.704C52.4185 79.944 52.1305 79.576 51.6025 79.576C51.0185 79.576 50.6745 80.024 50.6745 80.88V83H49.9945ZM58.2915 83.064C57.0515 83.064 56.4435 82.152 56.4435 81.056C56.4435 79.96 57.0355 78.992 58.2275 78.992C59.4435 78.992 59.9795 79.92 59.9795 80.88C59.9795 80.928 59.9715 81.12 59.9555 81.232H57.1155C57.1475 82 57.5795 82.448 58.2995 82.448C58.7555 82.448 59.0755 82.304 59.3795 81.976L59.8515 82.392C59.4115 82.856 58.9395 83.064 58.2915 83.064ZM57.1075 80.728H59.3275L59.3315 80.632C59.3315 80.112 58.9795 79.56 58.2435 79.56C57.5475 79.56 57.1555 80.088 57.1075 80.728Z" fill="white" fill-opacity="0.5"/>
<rect x="16.5" y="73.5" width="76" height="14" stroke="white"/>
<path d="M115.332 83V77.424H116.996C118.268 77.424 118.852 78.016 118.852 78.992C118.852 79.76 118.476 80.272 117.772 80.48L119.26 83H118.452L117.052 80.576H116.676H116.036V83H115.332ZM116.036 79.952H116.924C117.652 79.952 118.148 79.688 118.148 79C118.148 78.304 117.636 78.056 116.924 78.056H116.036V79.952ZM121.558 83.064C120.318 83.064 119.71 82.152 119.71 81.056C119.71 79.96 120.302 78.992 121.494 78.992C122.71 78.992 123.246 79.92 123.246 80.88C123.246 80.928 123.238 81.12 123.222 81.232H120.382C120.414 82 120.846 82.448 121.566 82.448C122.022 82.448 122.342 82.304 122.646 81.976L123.118 82.392C122.678 82.856 122.206 83.064 121.558 83.064ZM120.374 80.728H122.594L122.598 80.632C122.598 80.112 122.246 79.56 121.51 79.56C120.814 79.56 120.422 80.088 120.374 80.728ZM125.854 83.064C124.678 83.064 124.03 82.128 124.03 81.024C124.03 79.928 124.678 78.992 125.854 78.992C126.598 78.992 127.182 79.352 127.454 80.096L126.854 80.328C126.702 79.88 126.374 79.576 125.854 79.576C125.062 79.576 124.702 80.28 124.702 81.024C124.702 81.776 125.062 82.472 125.854 82.472C126.374 82.472 126.702 82.176 126.854 81.72L127.454 81.952C127.182 82.696 126.598 83.064 125.854 83.064ZM130.082 83.064C128.97 83.064 128.162 82.216 128.162 81.024C128.162 79.84 128.954 78.992 130.082 78.992C131.194 78.992 131.994 79.84 131.994 81.024C131.994 82.208 131.186 83.064 130.082 83.064ZM128.834 81.024C128.834 81.896 129.322 82.464 130.082 82.464C130.834 82.464 131.314 81.896 131.314 81.024C131.314 80.144 130.834 79.584 130.082 79.584C129.322 79.584 128.834 80.152 128.834 81.024ZM132.956 83V79.056H133.636V79.616C133.912 79.216 134.4 78.992 134.812 78.992C135.028 78.992 135.244 79.04 135.476 79.168L135.14 79.776C135.012 79.712 134.82 79.664 134.66 79.664C134.276 79.664 133.868 79.864 133.708 80.368C133.66 80.536 133.636 80.712 133.636 81.152V83H132.956ZM137.595 83.064C136.523 83.064 135.803 82.184 135.803 81.024C135.803 79.784 136.603 78.992 137.595 78.992C138.159 78.992 138.603 79.24 138.859 79.624V77.424H139.531V83H138.859V82.44C138.591 82.84 138.159 83.064 137.595 83.064ZM136.483 81.024C136.483 81.856 136.987 82.44 137.707 82.44C138.419 82.44 138.915 81.856 138.915 81.024C138.915 80.192 138.419 79.608 137.707 79.608C136.987 79.608 136.483 80.192 136.483 81.024ZM140.674 83V79.056H141.346V83H140.674ZM140.61 78.344V77.424H141.41V78.344H140.61ZM142.487 83V79.056H143.167V79.568C143.431 79.184 143.867 78.992 144.375 78.992C145.239 78.992 145.759 79.504 145.759 80.496V83H145.079V80.744C145.079 79.944 144.783 79.576 144.191 79.576C143.535 79.576 143.167 80.024 143.167 81.032V83H142.487ZM148.374 84.704C147.238 84.704 146.614 84.272 146.614 83.448C146.614 83.432 146.614 83.416 146.638 83.304L147.274 82.844C146.942 82.696 146.71 82.46 146.71 82.04C146.71 81.712 146.874 81.476 147.138 81.28C146.926 81.048 146.806 80.74 146.806 80.392C146.806 79.56 147.486 78.992 148.334 78.992C148.702 78.992 149.042 79.104 149.31 79.3L149.942 78.776L150.286 79.2L149.678 79.72C149.79 79.92 149.854 80.156 149.854 80.416C149.854 81.232 149.238 81.768 148.358 81.768C148.05 81.768 147.774 81.704 147.542 81.588C147.414 81.68 147.358 81.8 147.358 81.936C147.358 82.28 147.678 82.368 148.27 82.456C149.326 82.616 150.134 82.744 150.134 83.56C150.134 84.304 149.47 84.704 148.374 84.704ZM147.286 83.512C147.286 83.984 147.71 84.184 148.39 84.184C148.99 84.184 149.47 84.032 149.47 83.648C149.47 83.208 148.846 83.16 148.19 83.064C148.018 83.04 147.842 83.012 147.678 82.972L147.294 83.448C147.286 83.504 147.286 83.496 147.286 83.512ZM147.478 80.368C147.478 80.848 147.806 81.216 148.342 81.216C148.87 81.216 149.182 80.848 149.182 80.376C149.182 79.88 148.846 79.536 148.342 79.536C147.83 79.536 147.478 79.888 147.478 80.368ZM154.802 83V78.856H153.346V78.312H154.314C154.634 78.312 154.802 78.192 154.802 77.848V77.424H155.482V83H154.802Z" fill="white" fill-opacity="0.5"/>
<rect x="107.5" y="73.5" width="76" height="14" stroke="white"/>
<path d="M115.219 106V100.424H116.883C118.155 100.424 118.739 101.016 118.739 101.992C118.739 102.76 118.363 103.272 117.659 103.48L119.147 106H118.339L116.939 103.576H116.563H115.923V106H115.219ZM115.923 102.952H116.811C117.539 102.952 118.035 102.688 118.035 102C118.035 101.304 117.523 101.056 116.811 101.056H115.923V102.952ZM121.445 106.064C120.205 106.064 119.597 105.152 119.597 104.056C119.597 102.96 120.189 101.992 121.381 101.992C122.597 101.992 123.133 102.92 123.133 103.88C123.133 103.928 123.125 104.12 123.109 104.232H120.269C120.301 105 120.733 105.448 121.453 105.448C121.909 105.448 122.229 105.304 122.533 104.976L123.005 105.392C122.565 105.856 122.093 106.064 121.445 106.064ZM120.261 103.728H122.481L122.485 103.632C122.485 103.112 122.133 102.56 121.397 102.56C120.701 102.56 120.309 103.088 120.261 103.728ZM125.741 106.064C124.565 106.064 123.917 105.128 123.917 104.024C123.917 102.928 124.565 101.992 125.741 101.992C126.485 101.992 127.069 102.352 127.341 103.096L126.741 103.328C126.589 102.88 126.261 102.576 125.741 102.576C124.949 102.576 124.589 103.28 124.589 104.024C124.589 104.776 124.949 105.472 125.741 105.472C126.261 105.472 126.589 105.176 126.741 104.72L127.341 104.952C127.069 105.696 126.485 106.064 125.741 106.064ZM129.97 106.064C128.858 106.064 128.05 105.216 128.05 104.024C128.05 102.84 128.842 101.992 129.97 101.992C131.082 101.992 131.882 102.84 131.882 104.024C131.882 105.208 131.074 106.064 129.97 106.064ZM128.722 104.024C128.722 104.896 129.21 105.464 129.97 105.464C130.722 105.464 131.202 104.896 131.202 104.024C131.202 103.144 130.722 102.584 129.97 102.584C129.21 102.584 128.722 103.152 128.722 104.024ZM132.843 106V102.056H133.523V102.616C133.799 102.216 134.287 101.992 134.699 101.992C134.915 101.992 135.131 102.04 135.363 102.168L135.027 102.776C134.899 102.712 134.707 102.664 134.547 102.664C134.163 102.664 133.755 102.864 133.595 103.368C133.547 103.536 133.523 103.712 133.523 104.152V106H132.843ZM137.482 106.064C136.41 106.064 135.69 105.184 135.69 104.024C135.69 102.784 136.49 101.992 137.482 101.992C138.046 101.992 138.49 102.24 138.746 102.624V100.424H139.418V106H138.746V105.44C138.478 105.84 138.046 106.064 137.482 106.064ZM136.37 104.024C136.37 104.856 136.874 105.44 137.594 105.44C138.306 105.44 138.802 104.856 138.802 104.024C138.802 103.192 138.306 102.608 137.594 102.608C136.874 102.608 136.37 103.192 136.37 104.024ZM140.562 106V102.056H141.234V106H140.562ZM140.498 101.344V100.424H141.298V101.344H140.498ZM142.374 106V102.056H143.054V102.568C143.318 102.184 143.754 101.992 144.262 101.992C145.126 101.992 145.646 102.504 145.646 103.496V106H144.966V103.744C144.966 102.944 144.67 102.576 144.078 102.576C143.422 102.576 143.054 103.024 143.054 104.032V106H142.374ZM148.261 107.704C147.125 107.704 146.501 107.272 146.501 106.448C146.501 106.432 146.501 106.416 146.525 106.304L147.161 105.844C146.829 105.696 146.597 105.46 146.597 105.04C146.597 104.712 146.761 104.476 147.025 104.28C146.813 104.048 146.693 103.74 146.693 103.392C146.693 102.56 147.373 101.992 148.221 101.992C148.589 101.992 148.929 102.104 149.197 102.3L149.829 101.776L150.173 102.2L149.565 102.72C149.677 102.92 149.741 103.156 149.741 103.416C149.741 104.232 149.125 104.768 148.245 104.768C147.937 104.768 147.661 104.704 147.429 104.588C147.301 104.68 147.245 104.8 147.245 104.936C147.245 105.28 147.565 105.368 148.157 105.456C149.213 105.616 150.021 105.744 150.021 106.56C150.021 107.304 149.357 107.704 148.261 107.704ZM147.173 106.512C147.173 106.984 147.597 107.184 148.277 107.184C148.877 107.184 149.357 107.032 149.357 106.648C149.357 106.208 148.733 106.16 148.077 106.064C147.905 106.04 147.729 106.012 147.565 105.972L147.181 106.448C147.173 106.504 147.173 106.496 147.173 106.512ZM147.365 103.368C147.365 103.848 147.693 104.216 148.229 104.216C148.757 104.216 149.069 103.848 149.069 103.376C149.069 102.88 148.733 102.536 148.229 102.536C147.717 102.536 147.365 102.888 147.365 103.368ZM152.745 105.44C153.689 104.704 155.577 103.512 155.577 102.088C155.577 101.456 155.217 101.024 154.537 101.024C153.777 101.024 153.417 101.592 153.401 102.352L152.737 102.304C152.737 101.264 153.385 100.368 154.561 100.368C155.561 100.368 156.241 101.04 156.241 102.064C156.241 103.428 155.009 104.552 153.693 105.368H156.465V106H152.745V105.44Z" fill="white" fill-opacity="0.5"/>
<rect x="107.5" y="96.5" width="76" height="14" stroke="white"/>
<path d="M115.332 129V123.424H116.996C118.268 123.424 118.852 124.016 118.852 124.992C118.852 125.76 118.476 126.272 117.772 126.48L119.26 129H118.452L117.052 126.576H116.676H116.036V129H115.332ZM116.036 125.952H116.924C117.652 125.952 118.148 125.688 118.148 125C118.148 124.304 117.636 124.056 116.924 124.056H116.036V125.952ZM121.558 129.064C120.318 129.064 119.71 128.152 119.71 127.056C119.71 125.96 120.302 124.992 121.494 124.992C122.71 124.992 123.246 125.92 123.246 126.88C123.246 126.928 123.238 127.12 123.222 127.232H120.382C120.414 128 120.846 128.448 121.566 128.448C122.022 128.448 122.342 128.304 122.646 127.976L123.118 128.392C122.678 128.856 122.206 129.064 121.558 129.064ZM120.374 126.728H122.594L122.598 126.632C122.598 126.112 122.246 125.56 121.51 125.56C120.814 125.56 120.422 126.088 120.374 126.728ZM125.518 129.064C124.71 129.064 124.15 128.656 123.886 128.2L124.358 127.8C124.558 128.208 124.974 128.496 125.526 128.496C126.03 128.496 126.35 128.272 126.35 127.904C126.35 127.456 125.894 127.336 125.366 127.2C124.702 127.032 124.094 126.8 124.094 126.096C124.094 125.432 124.646 124.992 125.454 124.992C126.07 124.992 126.582 125.248 126.87 125.736L126.358 126.04C126.166 125.72 125.838 125.536 125.43 125.536C125.03 125.536 124.718 125.712 124.718 126.032C124.718 126.344 125.006 126.472 125.558 126.6C126.222 126.76 127.014 126.944 127.014 127.832C127.014 128.576 126.422 129.064 125.518 129.064ZM129.3 129.064C128.444 129.064 127.924 128.544 127.924 127.552V125.056H128.596V127.312C128.596 128.104 128.9 128.472 129.492 128.472C130.148 128.472 130.516 128.024 130.516 127.016V125.056H131.188V129H130.516V128.48C130.248 128.864 129.812 129.064 129.3 129.064ZM132.347 129V125.056H133.027V125.632C133.283 125.168 133.727 124.992 134.155 124.992C134.687 124.992 135.083 125.216 135.303 125.668C135.571 125.216 135.975 124.992 136.515 124.992C137.491 124.992 137.867 125.728 137.867 126.6V129H137.195V126.76C137.195 126.024 136.963 125.576 136.363 125.576C135.787 125.576 135.451 126.016 135.451 126.88V129H134.771V126.704C134.771 125.944 134.483 125.576 133.955 125.576C133.371 125.576 133.027 126.024 133.027 126.88V129H132.347ZM140.644 129.064C139.404 129.064 138.796 128.152 138.796 127.056C138.796 125.96 139.388 124.992 140.58 124.992C141.796 124.992 142.332 125.92 142.332 126.88C142.332 126.928 142.324 127.12 142.308 127.232H139.468C139.5 128 139.932 128.448 140.652 128.448C141.108 128.448 141.428 128.304 141.732 127.976L142.204 128.392C141.764 128.856 141.292 129.064 140.644 129.064ZM139.46 126.728H141.68L141.684 126.632C141.684 126.112 141.332 125.56 140.596 125.56C139.9 125.56 139.508 126.088 139.46 126.728Z" fill="white" fill-opacity="0.5"/>
<rect x="107.5" y="119.5" width="76" height="14" stroke="white"/>
<path d="M24.3317 106V100.424H25.9957C27.2677 100.424 27.8517 101.016 27.8517 101.992C27.8517 102.76 27.4757 103.272 26.7717 103.48L28.2597 106H27.4517L26.0517 103.576H25.6757H25.0357V106H24.3317ZM25.0357 102.952H25.9237C26.6517 102.952 27.1477 102.688 27.1477 102C27.1477 101.304 26.6357 101.056 25.9237 101.056H25.0357V102.952ZM30.6131 106.064C29.5011 106.064 28.6931 105.216 28.6931 104.024C28.6931 102.84 29.4851 101.992 30.6131 101.992C31.7251 101.992 32.5251 102.84 32.5251 104.024C32.5251 105.208 31.7171 106.064 30.6131 106.064ZM29.3651 104.024C29.3651 104.896 29.8531 105.464 30.6131 105.464C31.3651 105.464 31.8451 104.896 31.8451 104.024C31.8451 103.144 31.3651 102.584 30.6131 102.584C29.8531 102.584 29.3651 103.152 29.3651 104.024ZM34.2865 106.064C33.8065 106.064 33.4785 105.776 33.4785 105.128V100.424H34.1505V105C34.1505 105.312 34.2865 105.44 34.5025 105.44C34.5985 105.44 34.7185 105.416 34.8465 105.376V105.952C34.6625 106.024 34.4465 106.064 34.2865 106.064ZM37.2524 106.064C36.0124 106.064 35.4044 105.152 35.4044 104.056C35.4044 102.96 35.9964 101.992 37.1884 101.992C38.4044 101.992 38.9404 102.92 38.9404 103.88C38.9404 103.928 38.9324 104.12 38.9164 104.232H36.0764C36.1084 105 36.5404 105.448 37.2604 105.448C37.7164 105.448 38.0364 105.304 38.3404 104.976L38.8124 105.392C38.3724 105.856 37.9004 106.064 37.2524 106.064ZM36.0684 103.728H38.2884L38.2924 103.632C38.2924 103.112 37.9404 102.56 37.2044 102.56C36.5084 102.56 36.1164 103.088 36.0684 103.728ZM43.9226 101.992C44.9946 101.992 45.7146 102.872 45.7146 104.032C45.7146 105.272 44.9146 106.064 43.9226 106.064C43.3586 106.064 42.9146 105.816 42.6586 105.432V107.632H41.9866V102.056H42.6586V102.616C42.9266 102.216 43.3586 101.992 43.9226 101.992ZM42.6026 104.032C42.6026 104.864 43.0986 105.448 43.8106 105.448C44.5306 105.448 45.0346 104.864 45.0346 104.032C45.0346 103.2 44.5306 102.616 43.8106 102.616C43.0986 102.616 42.6026 103.2 42.6026 104.032ZM46.674 106V102.056H47.354V102.616C47.63 102.216 48.118 101.992 48.53 101.992C48.746 101.992 48.962 102.04 49.194 102.168L48.858 102.776C48.73 102.712 48.538 102.664 48.378 102.664C47.994 102.664 47.586 102.864 47.426 103.368C47.378 103.536 47.354 103.712 47.354 104.152V106H46.674ZM51.3774 106.064C50.1374 106.064 49.5294 105.152 49.5294 104.056C49.5294 102.96 50.1214 101.992 51.3134 101.992C52.5294 101.992 53.0654 102.92 53.0654 103.88C53.0654 103.928 53.0574 104.12 53.0414 104.232H50.2014C50.2334 105 50.6654 105.448 51.3854 105.448C51.8414 105.448 52.1614 105.304 52.4654 104.976L52.9374 105.392C52.4974 105.856 52.0254 106.064 51.3774 106.064ZM50.1934 103.728H52.4134L52.4174 103.632C52.4174 103.112 52.0654 102.56 51.3294 102.56C50.6334 102.56 50.2414 103.088 50.1934 103.728ZM54.4185 106V102.584H53.6025V102.056H54.4265V101.544C54.4265 100.648 54.9065 100.36 55.5305 100.36C55.8185 100.36 56.0345 100.416 56.2345 100.52L56.0105 101.032C55.8905 100.968 55.7465 100.928 55.6025 100.928C55.2585 100.928 55.0985 101.152 55.0985 101.544V102.056H56.0185V102.584H55.0985V106H54.4185ZM58.2055 106.064C56.9655 106.064 56.3575 105.152 56.3575 104.056C56.3575 102.96 56.9495 101.992 58.1415 101.992C59.3575 101.992 59.8935 102.92 59.8935 103.88C59.8935 103.928 59.8855 104.12 59.8695 104.232H57.0295C57.0615 105 57.4935 105.448 58.2135 105.448C58.6695 105.448 58.9895 105.304 59.2935 104.976L59.7655 105.392C59.3255 105.856 58.8535 106.064 58.2055 106.064ZM57.0215 103.728H59.2415L59.2455 103.632C59.2455 103.112 58.8935 102.56 58.1575 102.56C57.4615 102.56 57.0695 103.088 57.0215 103.728ZM60.8536 106V102.056H61.5336V102.616C61.8096 102.216 62.2976 101.992 62.7096 101.992C62.9256 101.992 63.1416 102.04 63.3736 102.168L63.0376 102.776C62.9096 102.712 62.7176 102.664 62.5576 102.664C62.1736 102.664 61.7656 102.864 61.6056 103.368C61.5576 103.536 61.5336 103.712 61.5336 104.152V106H60.8536ZM65.5571 106.064C64.3171 106.064 63.7091 105.152 63.7091 104.056C63.7091 102.96 64.3011 101.992 65.4931 101.992C66.7091 101.992 67.2451 102.92 67.2451 103.88C67.2451 103.928 67.2371 104.12 67.2211 104.232H64.3811C64.4131 105 64.8451 105.448 65.5651 105.448C66.0211 105.448 66.3411 105.304 66.6451 104.976L67.1171 105.392C66.6771 105.856 66.2051 106.064 65.5571 106.064ZM64.3731 103.728H66.5931L66.5971 103.632C66.5971 103.112 66.2451 102.56 65.5091 102.56C64.8131 102.56 64.4211 103.088 64.3731 103.728ZM68.2132 106V102.056H68.8932V102.568C69.1572 102.184 69.5932 101.992 70.1012 101.992C70.9652 101.992 71.4852 102.504 71.4852 103.496V106H70.8052V103.744C70.8052 102.944 70.5092 102.576 69.9172 102.576C69.2612 102.576 68.8932 103.024 68.8932 104.032V106H68.2132ZM74.2282 106.064C73.0522 106.064 72.4042 105.128 72.4042 104.024C72.4042 102.928 73.0522 101.992 74.2282 101.992C74.9722 101.992 75.5562 102.352 75.8282 103.096L75.2282 103.328C75.0762 102.88 74.7482 102.576 74.2282 102.576C73.4362 102.576 73.0762 103.28 73.0762 104.024C73.0762 104.776 73.4362 105.472 74.2282 105.472C74.7482 105.472 75.0762 105.176 75.2282 104.72L75.8282 104.952C75.5562 105.696 74.9722 106.064 74.2282 106.064ZM78.4008 106.064C77.1608 106.064 76.5528 105.152 76.5528 104.056C76.5528 102.96 77.1448 101.992 78.3368 101.992C79.5528 101.992 80.0888 102.92 80.0888 103.88C80.0888 103.928 80.0808 104.12 80.0648 104.232H77.2248C77.2568 105 77.6888 105.448 78.4088 105.448C78.8648 105.448 79.1848 105.304 79.4888 104.976L79.9608 105.392C79.5208 105.856 79.0488 106.064 78.4008 106.064ZM77.2168 103.728H79.4368L79.4408 103.632C79.4408 103.112 79.0888 102.56 78.3528 102.56C77.6568 102.56 77.2648 103.088 77.2168 103.728Z" fill="white" fill-opacity="0.5"/>
<rect x="16.5" y="96.5" width="76" height="14" stroke="white"/>
<path d="M26.0357 129.088C24.9157 129.088 24.1637 128.456 24.0037 127.48L24.6917 127.312C24.8117 128.064 25.3397 128.456 26.0597 128.456C26.6757 128.456 27.1557 128.064 27.1557 127.496C27.1557 126.904 26.6357 126.672 25.8917 126.384C24.9637 126.032 24.3477 125.632 24.3477 124.784C24.3477 123.944 25.0117 123.328 26.0117 123.328C26.7157 123.328 27.2677 123.656 27.6037 124.28L27.0437 124.624C26.7957 124.192 26.4437 123.952 25.9877 123.952C25.4357 123.952 25.0517 124.296 25.0517 124.768C25.0517 125.288 25.4917 125.512 26.2677 125.8C27.2357 126.168 27.8517 126.576 27.8517 127.456C27.8517 128.4 27.0997 129.088 26.0357 129.088ZM30.4313 129.064C29.2553 129.064 28.6073 128.128 28.6073 127.024C28.6073 125.928 29.2553 124.992 30.4313 124.992C31.1753 124.992 31.7593 125.352 32.0313 126.096L31.4313 126.328C31.2793 125.88 30.9513 125.576 30.4313 125.576C29.6393 125.576 29.2793 126.28 29.2793 127.024C29.2793 127.776 29.6393 128.472 30.4313 128.472C30.9513 128.472 31.2793 128.176 31.4313 127.72L32.0313 127.952C31.7593 128.696 31.1753 129.064 30.4313 129.064ZM32.932 129V123.424H33.612V125.568C33.876 125.184 34.312 124.992 34.82 124.992C35.684 124.992 36.204 125.504 36.204 126.496V129H35.524V126.744C35.524 125.944 35.228 125.576 34.636 125.576C33.98 125.576 33.612 126.024 33.612 127.032V129H32.932ZM39.035 129.064C37.923 129.064 37.115 128.216 37.115 127.024C37.115 125.84 37.907 124.992 39.035 124.992C40.147 124.992 40.947 125.84 40.947 127.024C40.947 128.208 40.139 129.064 39.035 129.064ZM37.787 127.024C37.787 127.896 38.275 128.464 39.035 128.464C39.787 128.464 40.267 127.896 40.267 127.024C40.267 126.144 39.787 125.584 39.035 125.584C38.275 125.584 37.787 126.152 37.787 127.024ZM42.7083 129.064C42.2283 129.064 41.9003 128.776 41.9003 128.128V123.424H42.5723V128C42.5723 128.312 42.7083 128.44 42.9243 128.44C43.0203 128.44 43.1403 128.416 43.2683 128.376V128.952C43.0843 129.024 42.8683 129.064 42.7083 129.064ZM46.6646 129L46.6326 128.44C46.3606 128.852 45.9126 129.064 45.3606 129.064C44.4566 129.064 43.8886 128.568 43.8886 127.824C43.8886 127.384 44.0806 127.088 44.3606 126.912C44.6406 126.736 45.0086 126.672 45.4006 126.672H46.6166V126.528C46.6166 125.92 46.2726 125.576 45.6166 125.576C45.1846 125.576 44.8246 125.736 44.4726 126.152L43.9846 125.736C44.4166 125.224 44.9926 124.992 45.6646 124.992C46.6966 124.992 47.2886 125.552 47.2886 126.528V129H46.6646ZM44.5686 127.832C44.5686 128.248 44.8966 128.512 45.4246 128.512C46.0726 128.512 46.6166 128.016 46.6166 127.336V127.184H45.4966C45.2566 127.184 44.9846 127.216 44.7926 127.352C44.6486 127.456 44.5686 127.616 44.5686 127.832ZM48.3849 129V125.056H49.0649V125.616C49.3409 125.216 49.8289 124.992 50.2409 124.992C50.4569 124.992 50.6729 125.04 50.9049 125.168L50.5689 125.776C50.4409 125.712 50.2489 125.664 50.0889 125.664C49.7049 125.664 49.2969 125.864 49.1369 126.368C49.0889 126.536 49.0649 126.712 49.0649 127.152V129H48.3849ZM52.8297 129.064C52.0217 129.064 51.4617 128.656 51.1977 128.2L51.6697 127.8C51.8697 128.208 52.2857 128.496 52.8377 128.496C53.3417 128.496 53.6617 128.272 53.6617 127.904C53.6617 127.456 53.2057 127.336 52.6777 127.2C52.0137 127.032 51.4057 126.8 51.4057 126.096C51.4057 125.432 51.9577 124.992 52.7657 124.992C53.3817 124.992 53.8937 125.248 54.1817 125.736L53.6697 126.04C53.4777 125.72 53.1497 125.536 52.7417 125.536C52.3417 125.536 52.0297 125.712 52.0297 126.032C52.0297 126.344 52.3177 126.472 52.8697 126.6C53.5337 126.76 54.3257 126.944 54.3257 127.832C54.3257 128.576 53.7337 129.064 52.8297 129.064ZM55.2835 129V123.424H55.9635V125.568C56.2275 125.184 56.6635 124.992 57.1715 124.992C58.0355 124.992 58.5555 125.504 58.5555 126.496V129H57.8755V126.744C57.8755 125.944 57.5795 125.576 56.9875 125.576C56.3315 125.576 55.9635 126.024 55.9635 127.032V129H55.2835ZM59.6505 129V125.056H60.3225V129H59.6505ZM59.5865 124.344V123.424H60.3865V124.344H59.5865ZM63.3992 124.992C64.4712 124.992 65.1912 125.872 65.1912 127.032C65.1912 128.272 64.3912 129.064 63.3992 129.064C62.8352 129.064 62.3912 128.816 62.1352 128.432V130.632H61.4632V125.056H62.1352V125.616C62.4032 125.216 62.8352 124.992 63.3992 124.992ZM62.0792 127.032C62.0792 127.864 62.5752 128.448 63.2872 128.448C64.0072 128.448 64.5112 127.864 64.5112 127.032C64.5112 126.2 64.0072 125.616 63.2872 125.616C62.5752 125.616 62.0792 126.2 62.0792 127.032ZM68.2286 129V125.056H68.9006V129H68.2286ZM68.1646 124.344V123.424H68.9646V124.344H68.1646ZM70.0413 129V125.056H70.7213V125.568C70.9853 125.184 71.4213 124.992 71.9293 124.992C72.7933 124.992 73.3133 125.504 73.3133 126.496V129H72.6333V126.744C72.6333 125.944 72.3373 125.576 71.7453 125.576C71.0893 125.576 70.7213 126.024 70.7213 127.032V129H70.0413ZM74.8403 129V125.584H74.0243V125.056H74.8483V124.544C74.8483 123.648 75.3283 123.36 75.9523 123.36C76.2403 123.36 76.4563 123.416 76.6563 123.52L76.4323 124.032C76.3123 123.968 76.1683 123.928 76.0243 123.928C75.6803 123.928 75.5203 124.152 75.5203 124.544V125.056H76.4403V125.584H75.5203V129H74.8403ZM78.6834 129.064C77.5714 129.064 76.7634 128.216 76.7634 127.024C76.7634 125.84 77.5554 124.992 78.6834 124.992C79.7954 124.992 80.5954 125.84 80.5954 127.024C80.5954 128.208 79.7874 129.064 78.6834 129.064ZM77.4354 127.024C77.4354 127.896 77.9234 128.464 78.6834 128.464C79.4354 128.464 79.9154 127.896 79.9154 127.024C79.9154 126.144 79.4354 125.584 78.6834 125.584C77.9234 125.584 77.4354 126.152 77.4354 127.024Z" fill="white" fill-opacity="0.5"/>
<rect x="16.5" y="119.5" width="76" height="14" stroke="white"/>
<path d="M110.72 23.12C108.8 23.12 107.5 21.68 107.5 19.51C107.5 17.35 108.79 15.91 110.72 15.91C112.12 15.91 113.19 16.65 113.65 17.87L112.83 18.18C112.48 17.28 111.74 16.75 110.72 16.75C109.29 16.75 108.38 17.82 108.38 19.51C108.38 21.21 109.29 22.28 110.72 22.28C111.74 22.28 112.48 21.75 112.83 20.85L113.65 21.15C113.19 22.37 112.12 23.12 110.72 23.12ZM116.921 23.08C115.531 23.08 114.521 22.02 114.521 20.53C114.521 19.05 115.511 17.99 116.921 17.99C118.311 17.99 119.311 19.05 119.311 20.53C119.311 22.01 118.301 23.08 116.921 23.08ZM115.361 20.53C115.361 21.62 115.971 22.33 116.921 22.33C117.861 22.33 118.461 21.62 118.461 20.53C118.461 19.43 117.861 18.73 116.921 18.73C115.971 18.73 115.361 19.44 115.361 20.53ZM120.523 23V18.07H121.373V18.71C121.703 18.23 122.248 17.99 122.883 17.99C123.963 17.99 124.613 18.63 124.613 19.87V23H123.763V20.18C123.763 19.18 123.393 18.72 122.653 18.72C121.833 18.72 121.373 19.28 121.373 20.54V23H120.523ZM127.761 23.08C127.051 23.08 126.521 22.69 126.521 21.74V18.73H125.501V18.07H126.521V16.75L127.381 16.27V18.07H128.521V18.73H127.381V21.52C127.381 22.07 127.531 22.38 127.981 22.38C128.111 22.38 128.311 22.35 128.521 22.29V22.95C128.271 23.04 128.001 23.08 127.761 23.08ZM129.614 23V18.07H130.454V23H129.614ZM129.534 17.18V16.03H130.534V17.18H129.534ZM131.88 23V18.07H132.73V18.71C133.06 18.23 133.605 17.99 134.24 17.99C135.32 17.99 135.97 18.63 135.97 19.87V23H135.12V20.18C135.12 19.18 134.75 18.72 134.01 18.72C133.19 18.72 132.73 19.28 132.73 20.54V23H131.88ZM139.009 23.08C137.939 23.08 137.289 22.43 137.289 21.19V18.07H138.129V20.89C138.129 21.88 138.509 22.34 139.249 22.34C140.069 22.34 140.529 21.78 140.529 20.52V18.07H141.369V23H140.529V22.35C140.194 22.83 139.649 23.08 139.009 23.08ZM144.908 23.08C143.358 23.08 142.598 21.94 142.598 20.57C142.598 19.2 143.338 17.99 144.828 17.99C146.348 17.99 147.018 19.15 147.018 20.35C147.018 20.41 147.008 20.65 146.988 20.79H143.438C143.478 21.75 144.018 22.31 144.918 22.31C145.488 22.31 145.888 22.13 146.268 21.72L146.858 22.24C146.308 22.82 145.718 23.08 144.908 23.08ZM143.428 20.16H146.203L146.208 20.04C146.208 19.39 145.768 18.7 144.848 18.7C143.978 18.7 143.488 19.36 143.428 20.16ZM151.315 25.03L152.255 22.76L150.335 18.07H151.265L152.705 21.91L154.155 18.07H155.075L152.235 25.03H151.315ZM158.054 23.08C156.664 23.08 155.654 22.02 155.654 20.53C155.654 19.05 156.644 17.99 158.054 17.99C159.444 17.99 160.444 19.05 160.444 20.53C160.444 22.01 159.434 23.08 158.054 23.08ZM156.494 20.53C156.494 21.62 157.104 22.33 158.054 22.33C158.994 22.33 159.594 21.62 159.594 20.53C159.594 19.43 158.994 18.73 158.054 18.73C157.104 18.73 156.494 19.44 156.494 20.53ZM163.316 23.08C162.246 23.08 161.596 22.43 161.596 21.19V18.07H162.436V20.89C162.436 21.88 162.816 22.34 163.556 22.34C164.376 22.34 164.836 21.78 164.836 20.52V18.07H165.676V23H164.836V22.35C164.501 22.83 163.956 23.08 163.316 23.08ZM167.114 23V18.07H167.964V18.77C168.309 18.27 168.919 17.99 169.434 17.99C169.704 17.99 169.974 18.05 170.264 18.21L169.844 18.97C169.684 18.89 169.444 18.83 169.244 18.83C168.764 18.83 168.254 19.08 168.054 19.71C167.994 19.92 167.964 20.14 167.964 20.69V23H167.114ZM110.96 33L110.92 32.3C110.58 32.815 110.02 33.08 109.33 33.08C108.2 33.08 107.49 32.46 107.49 31.53C107.49 30.98 107.73 30.61 108.08 30.39C108.43 30.17 108.89 30.09 109.38 30.09H110.9V29.91C110.9 29.15 110.47 28.72 109.65 28.72C109.11 28.72 108.66 28.92 108.22 29.44L107.61 28.92C108.15 28.28 108.87 27.99 109.71 27.99C111 27.99 111.74 28.69 111.74 29.91V33H110.96ZM108.34 31.54C108.34 32.06 108.75 32.39 109.41 32.39C110.22 32.39 110.9 31.77 110.9 30.92V30.73H109.5C109.2 30.73 108.86 30.77 108.62 30.94C108.44 31.07 108.34 31.27 108.34 31.54ZM115.54 27.99C116.88 27.99 117.78 29.09 117.78 30.54C117.78 32.09 116.78 33.08 115.54 33.08C114.835 33.08 114.28 32.77 113.96 32.29V35.04H113.12V28.07H113.96V28.77C114.295 28.27 114.835 27.99 115.54 27.99ZM113.89 30.54C113.89 31.58 114.51 32.31 115.4 32.31C116.3 32.31 116.93 31.58 116.93 30.54C116.93 29.5 116.3 28.77 115.4 28.77C114.51 28.77 113.89 29.5 113.89 30.54ZM121.41 27.99C122.75 27.99 123.65 29.09 123.65 30.54C123.65 32.09 122.65 33.08 121.41 33.08C120.705 33.08 120.15 32.77 119.83 32.29V35.04H118.99V28.07H119.83V28.77C120.165 28.27 120.705 27.99 121.41 27.99ZM119.76 30.54C119.76 31.58 120.38 32.31 121.27 32.31C122.17 32.31 122.8 31.58 122.8 30.54C122.8 29.5 122.17 28.77 121.27 28.77C120.38 28.77 119.76 29.5 119.76 30.54ZM125.849 33.08C125.249 33.08 124.839 32.72 124.839 31.91V26.03H125.679V31.75C125.679 32.14 125.849 32.3 126.119 32.3C126.239 32.3 126.389 32.27 126.549 32.22V32.94C126.319 33.03 126.049 33.08 125.849 33.08ZM127.544 33V28.07H128.384V33H127.544ZM127.464 27.18V26.03H128.464V27.18H127.464ZM131.86 33.08C130.39 33.08 129.58 31.91 129.58 30.53C129.58 29.16 130.39 27.99 131.86 27.99C132.79 27.99 133.52 28.44 133.86 29.37L133.11 29.66C132.92 29.1 132.51 28.72 131.86 28.72C130.87 28.72 130.42 29.6 130.42 30.53C130.42 31.47 130.87 32.34 131.86 32.34C132.51 32.34 132.92 31.97 133.11 31.4L133.86 31.69C133.52 32.62 132.79 33.08 131.86 33.08ZM138.226 33L138.186 32.3C137.846 32.815 137.286 33.08 136.596 33.08C135.466 33.08 134.756 32.46 134.756 31.53C134.756 30.98 134.996 30.61 135.346 30.39C135.696 30.17 136.156 30.09 136.646 30.09H138.166V29.91C138.166 29.15 137.736 28.72 136.916 28.72C136.376 28.72 135.926 28.92 135.486 29.44L134.876 28.92C135.416 28.28 136.136 27.99 136.976 27.99C138.266 27.99 139.006 28.69 139.006 29.91V33H138.226ZM135.606 31.54C135.606 32.06 136.016 32.39 136.676 32.39C137.486 32.39 138.166 31.77 138.166 30.92V30.73H136.766C136.466 30.73 136.126 30.77 135.886 30.94C135.706 31.07 135.606 31.27 135.606 31.54ZM142.156 33.08C141.446 33.08 140.916 32.69 140.916 31.74V28.73H139.896V28.07H140.916V26.75L141.776 26.27V28.07H142.916V28.73H141.776V31.52C141.776 32.07 141.926 32.38 142.376 32.38C142.506 32.38 142.706 32.35 142.916 32.29V32.95C142.666 33.04 142.396 33.08 142.156 33.08ZM144.009 33V28.07H144.849V33H144.009ZM143.929 27.18V26.03H144.929V27.18H143.929ZM148.435 33.08C147.045 33.08 146.035 32.02 146.035 30.53C146.035 29.05 147.025 27.99 148.435 27.99C149.825 27.99 150.825 29.05 150.825 30.53C150.825 32.01 149.815 33.08 148.435 33.08ZM146.875 30.53C146.875 31.62 147.485 32.33 148.435 32.33C149.375 32.33 149.975 31.62 149.975 30.53C149.975 29.43 149.375 28.73 148.435 28.73C147.485 28.73 146.875 29.44 146.875 30.53ZM152.036 33V28.07H152.886V28.71C153.216 28.23 153.761 27.99 154.396 27.99C155.476 27.99 156.126 28.63 156.126 29.87V33H155.276V30.18C155.276 29.18 154.906 28.72 154.166 28.72C153.346 28.72 152.886 29.28 152.886 30.54V33H152.036ZM108.43 45.04C107.65 43.94 107.25 42.03 107.25 40.55C107.25 38.91 107.65 37.17 108.44 36.03H109.21C108.33 37.25 107.93 39.01 107.93 40.54C107.93 42.03 108.37 43.92 109.21 45.04H108.43ZM109.927 43V38.07H110.767V43H109.927ZM109.847 37.18V36.03H110.847V37.18H109.847ZM112.193 43V38.07H113.043V38.71C113.373 38.23 113.918 37.99 114.553 37.99C115.633 37.99 116.283 38.63 116.283 39.87V43H115.433V40.18C115.433 39.18 115.063 38.72 114.323 38.72C113.503 38.72 113.043 39.28 113.043 40.54V43H112.193ZM119.711 43.08C118.241 43.08 117.431 41.91 117.431 40.53C117.431 39.16 118.241 37.99 119.711 37.99C120.641 37.99 121.371 38.44 121.711 39.37L120.961 39.66C120.771 39.1 120.361 38.72 119.711 38.72C118.721 38.72 118.271 39.6 118.271 40.53C118.271 41.47 118.721 42.34 119.711 42.34C120.361 42.34 120.771 41.97 120.961 41.4L121.711 41.69C121.371 42.62 120.641 43.08 119.711 43.08ZM123.827 43.08C123.227 43.08 122.817 42.72 122.817 41.91V36.03H123.657V41.75C123.657 42.14 123.827 42.3 124.097 42.3C124.217 42.3 124.367 42.27 124.527 42.22V42.94C124.297 43.03 124.027 43.08 123.827 43.08ZM127.193 43.08C126.123 43.08 125.472 42.43 125.472 41.19V38.07H126.313V40.89C126.313 41.88 126.693 42.34 127.433 42.34C128.253 42.34 128.713 41.78 128.713 40.52V38.07H129.553V43H128.713V42.35C128.378 42.83 127.833 43.08 127.193 43.08ZM133.011 43.08C131.671 43.08 130.771 41.98 130.771 40.53C130.771 38.98 131.771 37.99 133.011 37.99C133.716 37.99 134.271 38.3 134.591 38.78V36.03H135.431V43H134.591V42.3C134.256 42.8 133.716 43.08 133.011 43.08ZM131.621 40.53C131.621 41.57 132.251 42.3 133.151 42.3C134.041 42.3 134.661 41.57 134.661 40.53C134.661 39.49 134.041 38.76 133.151 38.76C132.251 38.76 131.621 39.49 131.621 40.53ZM136.86 43V38.07H137.7V43H136.86ZM136.78 37.18V36.03H137.78V37.18H136.78ZM139.126 43V38.07H139.976V38.71C140.306 38.23 140.851 37.99 141.486 37.99C142.566 37.99 143.216 38.63 143.216 39.87V43H142.366V40.18C142.366 39.18 141.996 38.72 141.256 38.72C140.436 38.72 139.976 39.28 139.976 40.54V43H139.126ZM146.485 45.13C145.065 45.13 144.285 44.59 144.285 43.56C144.285 43.54 144.285 43.52 144.315 43.38L145.11 42.805C144.695 42.62 144.405 42.325 144.405 41.8C144.405 41.39 144.61 41.095 144.94 40.85C144.675 40.56 144.525 40.175 144.525 39.74C144.525 38.7 145.375 37.99 146.435 37.99C146.895 37.99 147.32 38.13 147.655 38.375L148.445 37.72L148.875 38.25L148.115 38.9C148.255 39.15 148.335 39.445 148.335 39.77C148.335 40.79 147.565 41.46 146.465 41.46C146.08 41.46 145.735 41.38 145.445 41.235C145.285 41.35 145.215 41.5 145.215 41.67C145.215 42.1 145.615 42.21 146.355 42.32C147.675 42.52 148.685 42.68 148.685 43.7C148.685 44.63 147.855 45.13 146.485 45.13ZM145.125 43.64C145.125 44.23 145.655 44.48 146.505 44.48C147.255 44.48 147.855 44.29 147.855 43.81C147.855 43.26 147.075 43.2 146.255 43.08C146.04 43.05 145.82 43.015 145.615 42.965L145.135 43.56C145.125 43.63 145.125 43.62 145.125 43.64ZM145.365 39.71C145.365 40.31 145.775 40.77 146.445 40.77C147.105 40.77 147.495 40.31 147.495 39.72C147.495 39.1 147.075 38.67 146.445 38.67C145.805 38.67 145.365 39.11 145.365 39.71ZM109.35 53.08C108.34 53.08 107.64 52.57 107.31 52L107.9 51.5C108.15 52.01 108.67 52.37 109.36 52.37C109.99 52.37 110.39 52.09 110.39 51.63C110.39 51.07 109.82 50.92 109.16 50.75C108.33 50.54 107.57 50.25 107.57 49.37C107.57 48.54 108.26 47.99 109.27 47.99C110.04 47.99 110.68 48.31 111.04 48.92L110.4 49.3C110.16 48.9 109.75 48.67 109.24 48.67C108.74 48.67 108.35 48.89 108.35 49.29C108.35 49.68 108.71 49.84 109.4 50C110.23 50.2 111.22 50.43 111.22 51.54C111.22 52.47 110.48 53.08 109.35 53.08ZM114.467 53.08C112.997 53.08 112.187 51.91 112.187 50.53C112.187 49.16 112.997 47.99 114.467 47.99C115.397 47.99 116.127 48.44 116.467 49.37L115.717 49.66C115.527 49.1 115.117 48.72 114.467 48.72C113.477 48.72 113.027 49.6 113.027 50.53C113.027 51.47 113.477 52.34 114.467 52.34C115.117 52.34 115.527 51.97 115.717 51.4L116.467 51.69C116.127 52.62 115.397 53.08 114.467 53.08ZM117.593 53V46.03H118.443V48.71C118.773 48.23 119.318 47.99 119.953 47.99C121.033 47.99 121.683 48.63 121.683 49.87V53H120.833V50.18C120.833 49.18 120.463 48.72 119.723 48.72C118.903 48.72 118.443 49.28 118.443 50.54V53H117.593ZM125.222 53.08C123.832 53.08 122.822 52.02 122.822 50.53C122.822 49.05 123.812 47.99 125.222 47.99C126.612 47.99 127.612 49.05 127.612 50.53C127.612 52.01 126.602 53.08 125.222 53.08ZM123.662 50.53C123.662 51.62 124.272 52.33 125.222 52.33C126.162 52.33 126.762 51.62 126.762 50.53C126.762 49.43 126.162 48.73 125.222 48.73C124.272 48.73 123.662 49.44 123.662 50.53ZM129.814 53.08C129.214 53.08 128.804 52.72 128.804 51.91V46.03H129.644V51.75C129.644 52.14 129.814 52.3 130.084 52.3C130.204 52.3 130.354 52.27 130.514 52.22V52.94C130.284 53.03 130.014 53.08 129.814 53.08ZM134.759 53L134.719 52.3C134.379 52.815 133.819 53.08 133.129 53.08C131.999 53.08 131.289 52.46 131.289 51.53C131.289 50.98 131.529 50.61 131.879 50.39C132.229 50.17 132.689 50.09 133.179 50.09H134.699V49.91C134.699 49.15 134.269 48.72 133.449 48.72C132.909 48.72 132.459 48.92 132.019 49.44L131.409 48.92C131.949 48.28 132.669 47.99 133.509 47.99C134.799 47.99 135.539 48.69 135.539 49.91V53H134.759ZM132.139 51.54C132.139 52.06 132.549 52.39 133.209 52.39C134.019 52.39 134.699 51.77 134.699 50.92V50.73H133.299C132.999 50.73 132.659 50.77 132.419 50.94C132.239 51.07 132.139 51.27 132.139 51.54ZM136.909 53V48.07H137.759V48.77C138.104 48.27 138.714 47.99 139.229 47.99C139.499 47.99 139.769 48.05 140.059 48.21L139.639 48.97C139.479 48.89 139.239 48.83 139.039 48.83C138.559 48.83 138.049 49.08 137.849 49.71C137.789 49.92 137.759 50.14 137.759 50.69V53H136.909ZM142.465 53.08C141.455 53.08 140.755 52.57 140.425 52L141.015 51.5C141.265 52.01 141.785 52.37 142.475 52.37C143.105 52.37 143.505 52.09 143.505 51.63C143.505 51.07 142.935 50.92 142.275 50.75C141.445 50.54 140.685 50.25 140.685 49.37C140.685 48.54 141.375 47.99 142.385 47.99C143.155 47.99 143.795 48.31 144.155 48.92L143.515 49.3C143.275 48.9 142.865 48.67 142.355 48.67C141.855 48.67 141.465 48.89 141.465 49.29C141.465 49.68 141.825 49.84 142.515 50C143.345 50.2 144.335 50.43 144.335 51.54C144.335 52.47 143.595 53.08 142.465 53.08ZM145.533 53V46.03H146.383V48.71C146.713 48.23 147.258 47.99 147.893 47.99C148.973 47.99 149.623 48.63 149.623 49.87V53H148.773V50.18C148.773 49.18 148.403 48.72 147.663 48.72C146.843 48.72 146.383 49.28 146.383 50.54V53H145.533ZM150.991 53V48.07H151.831V53H150.991ZM150.911 47.18V46.03H151.911V47.18H150.911ZM155.677 47.99C157.017 47.99 157.917 49.09 157.917 50.54C157.917 52.09 156.917 53.08 155.677 53.08C154.972 53.08 154.417 52.77 154.097 52.29V55.04H153.257V48.07H154.097V48.77C154.432 48.27 154.972 47.99 155.677 47.99ZM154.027 50.54C154.027 51.58 154.647 52.31 155.537 52.31C156.437 52.31 157.067 51.58 157.067 50.54C157.067 49.5 156.437 48.77 155.537 48.77C154.647 48.77 154.027 49.5 154.027 50.54ZM107.71 63V58.07H108.56V58.77C108.905 58.27 109.515 57.99 110.03 57.99C110.3 57.99 110.57 58.05 110.86 58.21L110.44 58.97C110.28 58.89 110.04 58.83 109.84 58.83C109.36 58.83 108.85 59.08 108.65 59.71C108.59 59.92 108.56 60.14 108.56 60.69V63H107.71ZM113.589 63.08C112.039 63.08 111.279 61.94 111.279 60.57C111.279 59.2 112.019 57.99 113.509 57.99C115.029 57.99 115.699 59.15 115.699 60.35C115.699 60.41 115.689 60.65 115.669 60.79H112.119C112.159 61.75 112.699 62.31 113.599 62.31C114.169 62.31 114.569 62.13 114.949 61.72L115.539 62.24C114.989 62.82 114.399 63.08 113.589 63.08ZM112.109 60.16H114.884L114.889 60.04C114.889 59.39 114.449 58.7 113.529 58.7C112.659 58.7 112.169 59.36 112.109 60.16ZM118.919 57.99C119.624 57.99 120.164 58.27 120.499 58.77V58.07H121.339V65.04H120.499V62.29C120.179 62.77 119.624 63.08 118.919 63.08C117.679 63.08 116.679 62.09 116.679 60.54C116.679 59.09 117.579 57.99 118.919 57.99ZM117.529 60.54C117.529 61.58 118.159 62.31 119.059 62.31C119.949 62.31 120.569 61.58 120.569 60.54C120.569 59.5 119.949 58.77 119.059 58.77C118.159 58.77 117.529 59.5 117.529 60.54ZM124.439 63.08C123.369 63.08 122.719 62.43 122.719 61.19V58.07H123.559V60.89C123.559 61.88 123.939 62.34 124.679 62.34C125.499 62.34 125.959 61.78 125.959 60.52V58.07H126.799V63H125.959V62.35C125.624 62.83 125.079 63.08 124.439 63.08ZM130.337 63.08C128.787 63.08 128.027 61.94 128.027 60.57C128.027 59.2 128.767 57.99 130.257 57.99C131.777 57.99 132.447 59.15 132.447 60.35C132.447 60.41 132.437 60.65 132.417 60.79H128.867C128.907 61.75 129.447 62.31 130.347 62.31C130.917 62.31 131.317 62.13 131.697 61.72L132.287 62.24C131.737 62.82 131.147 63.08 130.337 63.08ZM128.857 60.16H131.632L131.637 60.04C131.637 59.39 131.197 58.7 130.277 58.7C129.407 58.7 128.917 59.36 128.857 60.16ZM135.288 63.08C134.278 63.08 133.578 62.57 133.248 62L133.838 61.5C134.088 62.01 134.608 62.37 135.298 62.37C135.928 62.37 136.328 62.09 136.328 61.63C136.328 61.07 135.758 60.92 135.098 60.75C134.268 60.54 133.508 60.25 133.508 59.37C133.508 58.54 134.198 57.99 135.208 57.99C135.978 57.99 136.618 58.31 136.978 58.92L136.338 59.3C136.098 58.9 135.688 58.67 135.178 58.67C134.678 58.67 134.288 58.89 134.288 59.29C134.288 59.68 134.648 59.84 135.338 60C136.168 60.2 137.158 60.43 137.158 61.54C137.158 62.47 136.418 63.08 135.288 63.08ZM140.125 63.08C139.415 63.08 138.885 62.69 138.885 61.74V58.73H137.865V58.07H138.885V56.75L139.745 56.27V58.07H140.885V58.73H139.745V61.52C139.745 62.07 139.895 62.38 140.345 62.38C140.475 62.38 140.675 62.35 140.885 62.29V62.95C140.635 63.04 140.365 63.08 140.125 63.08ZM141.278 65.04C142.118 63.92 142.558 62.03 142.558 60.54C142.558 59.01 142.158 57.25 141.278 56.03H142.048C142.838 57.17 143.238 58.91 143.238 60.55C143.238 62.03 142.838 63.94 142.058 65.04H141.278Z" fill="white"/>
<path d="M22.648 33.192C21.288 33.192 20.088 32.92 19.048 32.376C18.024 31.816 17.224 31.024 16.648 30L19.288 27.84C19.672 28.448 20.16 28.952 20.752 29.352C21.36 29.736 21.968 29.928 22.576 29.928C23.904 29.928 24.568 29.432 24.568 28.44C24.568 27.976 24.4 27.592 24.064 27.288C23.728 26.968 23.168 26.632 22.384 26.28L21.304 25.776C18.68 24.64 17.368 22.896 17.368 20.544C17.368 19.152 17.88 18.008 18.904 17.112C19.928 16.216 21.128 15.768 22.504 15.768C23.512 15.768 24.392 15.928 25.144 16.248C25.912 16.568 26.624 17.12 27.28 17.904L24.928 20.4C24.496 19.888 24.104 19.536 23.752 19.344C23.4 19.136 22.984 19.032 22.504 19.032C22.056 19.032 21.672 19.16 21.352 19.416C21.032 19.656 20.872 20 20.872 20.448C20.872 20.912 21.048 21.304 21.4 21.624C21.752 21.928 22.36 22.28 23.224 22.68L24.28 23.16C26.808 24.264 28.072 25.944 28.072 28.2C28.072 29.688 27.568 30.896 26.56 31.824C25.552 32.736 24.248 33.192 22.648 33.192ZM33.3374 33V19.392H29.0894V15.96H41.0894V19.392H36.8174V33H33.3374ZM43.4903 33V15.96H53.9063V19.392H46.9703V22.752H52.4663V26.112H46.9703V29.568H53.9063V33H43.4903ZM57.0138 33V15.96H62.4618C64.1418 15.96 65.5338 16.504 66.6378 17.592C67.7578 18.68 68.3177 20.024 68.3177 21.624C68.3177 23.224 67.7578 24.568 66.6378 25.656C65.5338 26.744 64.1418 27.288 62.4618 27.288H60.4938V33H57.0138ZM60.4938 24.048H62.4138C63.1658 24.048 63.7658 23.816 64.2138 23.352C64.6778 22.888 64.9098 22.312 64.9098 21.624C64.9098 20.936 64.6778 20.368 64.2138 19.92C63.7658 19.456 63.1658 19.224 62.4138 19.224H60.4938V24.048ZM79.3683 33.192C78.3123 33.192 77.3283 32.976 76.4163 32.544C75.5203 32.112 74.7923 31.512 74.2323 30.744L76.5843 28.608C77.2243 29.616 78.0883 30.12 79.1763 30.12C80.0403 30.12 80.7283 29.872 81.2403 29.376C81.7523 28.864 82.0083 28.176 82.0083 27.312C82.0083 26.448 81.7523 25.76 81.2403 25.248C80.7283 24.736 80.0323 24.48 79.1523 24.48H77.4723L80.1843 19.032H75.0003V15.96H85.0563L82.0803 21.984C83.1683 22.48 83.9843 23.2 84.5283 24.144C85.0723 25.072 85.3443 26.128 85.3443 27.312C85.3443 29.072 84.7923 30.496 83.6883 31.584C82.6003 32.656 81.1603 33.192 79.3683 33.192ZM90.0777 25.632C89.4217 25.632 88.8537 25.4 88.3737 24.936C87.9097 24.456 87.6777 23.88 87.6777 23.208C87.6777 22.536 87.9177 21.968 88.3977 21.504C88.8777 21.04 89.4377 20.808 90.0777 20.808C90.7337 20.808 91.3017 21.04 91.7817 21.504C92.2617 21.968 92.5017 22.536 92.5017 23.208C92.5017 23.88 92.2617 24.456 91.7817 24.936C91.3177 25.4 90.7497 25.632 90.0777 25.632ZM90.0777 33.192C89.4217 33.192 88.8537 32.96 88.3737 32.496C87.9097 32.016 87.6777 31.44 87.6777 30.768C87.6777 30.096 87.9177 29.528 88.3977 29.064C88.8777 28.6 89.4377 28.368 90.0777 28.368C90.7337 28.368 91.3017 28.6 91.7817 29.064C92.2617 29.528 92.5017 30.096 92.5017 30.768C92.5017 31.44 92.2617 32.016 91.7817 32.496C91.3177 32.96 90.7497 33.192 90.0777 33.192Z" fill="white"/>
</svg>
