<svg width="200" height="150" viewBox="0 0 200 150" fill="none" xmlns="http://www.w3.org/2000/svg">
<rect width="200" height="150" fill="black" fill-opacity="0.99"/>
<path d="M22.648 39.192C21.288 39.192 20.088 38.92 19.048 38.376C18.024 37.816 17.224 37.024 16.648 36L19.288 33.84C19.672 34.448 20.16 34.952 20.752 35.352C21.36 35.736 21.968 35.928 22.576 35.928C23.904 35.928 24.568 35.432 24.568 34.44C24.568 33.976 24.4 33.592 24.064 33.288C23.728 32.968 23.168 32.632 22.384 32.28L21.304 31.776C18.68 30.64 17.368 28.896 17.368 26.544C17.368 25.152 17.88 24.008 18.904 23.112C19.928 22.216 21.128 21.768 22.504 21.768C23.512 21.768 24.392 21.928 25.144 22.248C25.912 22.568 26.624 23.12 27.28 23.904L24.928 26.4C24.496 25.888 24.104 25.536 23.752 25.344C23.4 25.136 22.984 25.032 22.504 25.032C22.056 25.032 21.672 25.16 21.352 25.416C21.032 25.656 20.872 26 20.872 26.448C20.872 26.912 21.048 27.304 21.4 27.624C21.752 27.928 22.36 28.28 23.224 28.68L24.28 29.16C26.808 30.264 28.072 31.944 28.072 34.2C28.072 35.688 27.568 36.896 26.56 37.824C25.552 38.736 24.248 39.192 22.648 39.192ZM33.3374 39V25.392H29.0894V21.96H41.0894V25.392H36.8174V39H33.3374ZM43.4903 39V21.96H53.9063V25.392H46.9703V28.752H52.4663V32.112H46.9703V35.568H53.9063V39H43.4903ZM57.0138 39V21.96H62.4618C64.1418 21.96 65.5338 22.504 66.6378 23.592C67.7578 24.68 68.3177 26.024 68.3177 27.624C68.3177 29.224 67.7578 30.568 66.6378 31.656C65.5338 32.744 64.1418 33.288 62.4618 33.288H60.4938V39H57.0138ZM60.4938 30.048H62.4138C63.1658 30.048 63.7658 29.816 64.2138 29.352C64.6778 28.888 64.9098 28.312 64.9098 27.624C64.9098 26.936 64.6778 26.368 64.2138 25.92C63.7658 25.456 63.1658 25.224 62.4138 25.224H60.4938V30.048ZM75.4323 39V25.08L78.7443 21.768V39H75.4323ZM84.3121 31.632C83.6561 31.632 83.0881 31.4 82.6081 30.936C82.1441 30.456 81.9121 29.88 81.9121 29.208C81.9121 28.536 82.1521 27.968 82.6321 27.504C83.1121 27.04 83.6721 26.808 84.3121 26.808C84.9681 26.808 85.5361 27.04 86.0161 27.504C86.4961 27.968 86.7361 28.536 86.7361 29.208C86.7361 29.88 86.4961 30.456 86.0161 30.936C85.5521 31.4 84.9841 31.632 84.3121 31.632ZM84.3121 39.192C83.6561 39.192 83.0881 38.96 82.6081 38.496C82.1441 38.016 81.9121 37.44 81.9121 36.768C81.9121 36.096 82.1521 35.528 82.6321 35.064C83.1121 34.6 83.6721 34.368 84.3121 34.368C84.9681 34.368 85.5361 34.6 86.0161 35.064C86.4961 35.528 86.7361 36.096 86.7361 36.768C86.7361 37.44 86.4961 38.016 86.0161 38.496C85.5521 38.96 84.9841 39.192 84.3121 39.192Z" fill="white"/>
<path d="M60.79 75V68.03H61.72L65.09 73.535V68.03H65.97V75H65.02L61.67 69.49V75H60.79ZM70.7178 75L70.6778 74.3C70.3378 74.815 69.7778 75.08 69.0878 75.08C67.9578 75.08 67.2478 74.46 67.2478 73.53C67.2478 72.98 67.4878 72.61 67.8378 72.39C68.1878 72.17 68.6478 72.09 69.1378 72.09H70.6578V71.91C70.6578 71.15 70.2278 70.72 69.4078 70.72C68.8678 70.72 68.4178 70.92 67.9778 71.44L67.3678 70.92C67.9078 70.28 68.6278 69.99 69.4678 69.99C70.7578 69.99 71.4978 70.69 71.4978 71.91V75H70.7178ZM68.0978 73.54C68.0978 74.06 68.5078 74.39 69.1678 74.39C69.9778 74.39 70.6578 73.77 70.6578 72.92V72.73H69.2578C68.9578 72.73 68.6178 72.77 68.3778 72.94C68.1978 73.07 68.0978 73.27 68.0978 73.54ZM72.8782 75V70.07H73.7282V70.79C74.0482 70.21 74.6032 69.99 75.1382 69.99C75.8032 69.99 76.2982 70.27 76.5732 70.835C76.9082 70.27 77.4132 69.99 78.0882 69.99C79.3082 69.99 79.7782 70.91 79.7782 72V75H78.9382V72.2C78.9382 71.28 78.6482 70.72 77.8982 70.72C77.1782 70.72 76.7582 71.27 76.7582 72.35V75H75.9082V72.13C75.9082 71.18 75.5482 70.72 74.8882 70.72C74.1582 70.72 73.7282 71.28 73.7282 72.35V75H72.8782ZM83.2495 75.08C81.6995 75.08 80.9395 73.94 80.9395 72.57C80.9395 71.2 81.6795 69.99 83.1695 69.99C84.6895 69.99 85.3595 71.15 85.3595 72.35C85.3595 72.41 85.3495 72.65 85.3295 72.79H81.7795C81.8195 73.75 82.3595 74.31 83.2595 74.31C83.8295 74.31 84.2295 74.13 84.6095 73.72L85.1995 74.24C84.6495 74.82 84.0595 75.08 83.2495 75.08ZM81.7695 72.16H84.5445L84.5495 72.04C84.5495 71.39 84.1095 70.7 83.1895 70.7C82.3195 70.7 81.8295 71.36 81.7695 72.16Z" fill="white" fill-opacity="0.4"/>
<rect x="50.5" y="64.5" width="99" height="14" stroke="white"/>
<path d="M60.79 98V91.03H65.38V91.82H61.67V94.05H65.04V94.84H61.67V97.21H65.38V98H60.79ZM66.5696 98V93.07H67.4196V93.79C67.7396 93.21 68.2946 92.99 68.8296 92.99C69.4946 92.99 69.9896 93.27 70.2646 93.835C70.5996 93.27 71.1046 92.99 71.7796 92.99C72.9996 92.99 73.4696 93.91 73.4696 95V98H72.6296V95.2C72.6296 94.28 72.3396 93.72 71.5896 93.72C70.8696 93.72 70.4496 94.27 70.4496 95.35V98H69.5996V95.13C69.5996 94.18 69.2396 93.72 68.5796 93.72C67.8496 93.72 67.4196 94.28 67.4196 95.35V98H66.5696ZM78.0909 98L78.0509 97.3C77.7109 97.815 77.1509 98.08 76.4609 98.08C75.3309 98.08 74.6209 97.46 74.6209 96.53C74.6209 95.98 74.8609 95.61 75.2109 95.39C75.5609 95.17 76.0209 95.09 76.5109 95.09H78.0309V94.91C78.0309 94.15 77.6009 93.72 76.7809 93.72C76.2409 93.72 75.7909 93.92 75.3509 94.44L74.7409 93.92C75.2809 93.28 76.0009 92.99 76.8409 92.99C78.1309 92.99 78.8709 93.69 78.8709 94.91V98H78.0909ZM75.4709 96.54C75.4709 97.06 75.8809 97.39 76.5409 97.39C77.3509 97.39 78.0309 96.77 78.0309 95.92V95.73H76.6309C76.3309 95.73 75.9909 95.77 75.7509 95.94C75.5709 96.07 75.4709 96.27 75.4709 96.54ZM80.2413 98V93.07H81.0813V98H80.2413ZM80.1613 92.18V91.03H81.1613V92.18H80.1613ZM83.4971 98.08C82.8971 98.08 82.4871 97.72 82.4871 96.91V91.03H83.3271V96.75C83.3271 97.14 83.4971 97.3 83.7671 97.3C83.8871 97.3 84.0371 97.27 84.1971 97.22V97.94C83.9671 98.03 83.6971 98.08 83.4971 98.08Z" fill="white" fill-opacity="0.4"/>
<rect x="50.5" y="87.5" width="99" height="14" stroke="white"/>
<path d="M101.79 29V22.03H106.38V22.82H102.67V25.05H106.04V25.84H102.67V28.21H106.38V29H101.79ZM107.57 29V24.07H108.42V24.71C108.75 24.23 109.295 23.99 109.93 23.99C111.01 23.99 111.66 24.63 111.66 25.87V29H110.81V26.18C110.81 25.18 110.44 24.72 109.7 24.72C108.88 24.72 108.42 25.28 108.42 26.54V29H107.57ZM114.808 29.08C114.098 29.08 113.568 28.69 113.568 27.74V24.73H112.548V24.07H113.568V22.75L114.428 22.27V24.07H115.568V24.73H114.428V27.52C114.428 28.07 114.578 28.38 115.028 28.38C115.158 28.38 115.358 28.35 115.568 28.29V28.95C115.318 29.04 115.048 29.08 114.808 29.08ZM118.634 29.08C117.084 29.08 116.324 27.94 116.324 26.57C116.324 25.2 117.064 23.99 118.554 23.99C120.074 23.99 120.744 25.15 120.744 26.35C120.744 26.41 120.734 26.65 120.714 26.79H117.164C117.204 27.75 117.744 28.31 118.644 28.31C119.214 28.31 119.614 28.13 119.994 27.72L120.584 28.24C120.034 28.82 119.444 29.08 118.634 29.08ZM117.154 26.16H119.929L119.934 26.04C119.934 25.39 119.494 24.7 118.574 24.7C117.704 24.7 117.214 25.36 117.154 26.16ZM121.944 29V24.07H122.794V24.77C123.139 24.27 123.749 23.99 124.264 23.99C124.534 23.99 124.804 24.05 125.094 24.21L124.674 24.97C124.514 24.89 124.274 24.83 124.074 24.83C123.594 24.83 123.084 25.08 122.884 25.71C122.824 25.92 122.794 26.14 122.794 26.69V29H121.944ZM129.105 31.03L130.045 28.76L128.125 24.07H129.055L130.495 27.91L131.945 24.07H132.865L130.025 31.03H129.105ZM135.843 29.08C134.453 29.08 133.443 28.02 133.443 26.53C133.443 25.05 134.433 23.99 135.843 23.99C137.233 23.99 138.233 25.05 138.233 26.53C138.233 28.01 137.223 29.08 135.843 29.08ZM134.283 26.53C134.283 27.62 134.893 28.33 135.843 28.33C136.783 28.33 137.383 27.62 137.383 26.53C137.383 25.43 136.783 24.73 135.843 24.73C134.893 24.73 134.283 25.44 134.283 26.53ZM141.105 29.08C140.035 29.08 139.385 28.43 139.385 27.19V24.07H140.225V26.89C140.225 27.88 140.605 28.34 141.345 28.34C142.165 28.34 142.625 27.78 142.625 26.52V24.07H143.465V29H142.625V28.35C142.29 28.83 141.745 29.08 141.105 29.08ZM144.903 29V24.07H145.753V24.77C146.098 24.27 146.708 23.99 147.223 23.99C147.493 23.99 147.763 24.05 148.053 24.21L147.633 24.97C147.473 24.89 147.233 24.83 147.033 24.83C146.553 24.83 146.043 25.08 145.843 25.71C145.783 25.92 145.753 26.14 145.753 26.69V29H144.903ZM151.574 29V24.07H152.424V24.71C152.754 24.23 153.299 23.99 153.934 23.99C155.014 23.99 155.664 24.63 155.664 25.87V29H154.814V26.18C154.814 25.18 154.444 24.72 153.704 24.72C152.884 24.72 152.424 25.28 152.424 26.54V29H151.574ZM160.282 29L160.242 28.3C159.902 28.815 159.342 29.08 158.652 29.08C157.522 29.08 156.812 28.46 156.812 27.53C156.812 26.98 157.052 26.61 157.402 26.39C157.752 26.17 158.212 26.09 158.702 26.09H160.222V25.91C160.222 25.15 159.792 24.72 158.972 24.72C158.432 24.72 157.982 24.92 157.542 25.44L156.932 24.92C157.472 24.28 158.192 23.99 159.032 23.99C160.322 23.99 161.062 24.69 161.062 25.91V29H160.282ZM157.662 27.54C157.662 28.06 158.072 28.39 158.732 28.39C159.542 28.39 160.222 27.77 160.222 26.92V26.73H158.822C158.522 26.73 158.182 26.77 157.942 26.94C157.762 27.07 157.662 27.27 157.662 27.54ZM162.443 29V24.07H163.293V24.79C163.613 24.21 164.168 23.99 164.703 23.99C165.368 23.99 165.863 24.27 166.138 24.835C166.473 24.27 166.978 23.99 167.653 23.99C168.873 23.99 169.343 24.91 169.343 26V29H168.503V26.2C168.503 25.28 168.213 24.72 167.463 24.72C166.743 24.72 166.323 25.27 166.323 26.35V29H165.473V26.13C165.473 25.18 165.113 24.72 164.453 24.72C163.723 24.72 163.293 25.28 163.293 26.35V29H162.443ZM172.814 29.08C171.264 29.08 170.504 27.94 170.504 26.57C170.504 25.2 171.244 23.99 172.734 23.99C174.254 23.99 174.924 25.15 174.924 26.35C174.924 26.41 174.914 26.65 174.894 26.79H171.344C171.384 27.75 171.924 28.31 172.824 28.31C173.394 28.31 173.794 28.13 174.174 27.72L174.764 28.24C174.214 28.82 173.624 29.08 172.814 29.08ZM171.334 26.16H174.109L174.114 26.04C174.114 25.39 173.674 24.7 172.754 24.7C171.884 24.7 171.394 25.36 171.334 26.16ZM104.96 39L104.92 38.3C104.58 38.815 104.02 39.08 103.33 39.08C102.2 39.08 101.49 38.46 101.49 37.53C101.49 36.98 101.73 36.61 102.08 36.39C102.43 36.17 102.89 36.09 103.38 36.09H104.9V35.91C104.9 35.15 104.47 34.72 103.65 34.72C103.11 34.72 102.66 34.92 102.22 35.44L101.61 34.92C102.15 34.28 102.87 33.99 103.71 33.99C105 33.99 105.74 34.69 105.74 35.91V39H104.96ZM102.34 37.54C102.34 38.06 102.75 38.39 103.41 38.39C104.22 38.39 104.9 37.77 104.9 36.92V36.73H103.5C103.2 36.73 102.86 36.77 102.62 36.94C102.44 37.07 102.34 37.27 102.34 37.54ZM107.12 39V34.07H107.97V34.71C108.3 34.23 108.845 33.99 109.48 33.99C110.56 33.99 111.21 34.63 111.21 35.87V39H110.36V36.18C110.36 35.18 109.99 34.72 109.25 34.72C108.43 34.72 107.97 35.28 107.97 36.54V39H107.12ZM114.599 39.08C113.259 39.08 112.359 37.98 112.359 36.53C112.359 34.98 113.359 33.99 114.599 33.99C115.304 33.99 115.859 34.3 116.179 34.78V32.03H117.019V39H116.179V38.3C115.844 38.8 115.304 39.08 114.599 39.08ZM113.209 36.53C113.209 37.57 113.839 38.3 114.739 38.3C115.629 38.3 116.249 37.57 116.249 36.53C116.249 35.49 115.629 34.76 114.739 34.76C113.839 34.76 113.209 35.49 113.209 36.53ZM123.146 39.08C121.596 39.08 120.836 37.94 120.836 36.57C120.836 35.2 121.576 33.99 123.066 33.99C124.586 33.99 125.256 35.15 125.256 36.35C125.256 36.41 125.246 36.65 125.226 36.79H121.676C121.716 37.75 122.256 38.31 123.156 38.31C123.726 38.31 124.126 38.13 124.506 37.72L125.096 38.24C124.546 38.82 123.956 39.08 123.146 39.08ZM121.666 36.16H124.441L124.446 36.04C124.446 35.39 124.006 34.7 123.086 34.7C122.216 34.7 121.726 35.36 121.666 36.16ZM126.466 39V34.07H127.316V34.79C127.636 34.21 128.191 33.99 128.726 33.99C129.391 33.99 129.886 34.27 130.161 34.835C130.496 34.27 131.001 33.99 131.676 33.99C132.896 33.99 133.366 34.91 133.366 36V39H132.526V36.2C132.526 35.28 132.236 34.72 131.486 34.72C130.766 34.72 130.346 35.27 130.346 36.35V39H129.496V36.13C129.496 35.18 129.136 34.72 128.476 34.72C127.746 34.72 127.316 35.28 127.316 36.35V39H126.466ZM137.987 39L137.947 38.3C137.607 38.815 137.047 39.08 136.357 39.08C135.227 39.08 134.517 38.46 134.517 37.53C134.517 36.98 134.757 36.61 135.107 36.39C135.457 36.17 135.917 36.09 136.407 36.09H137.927V35.91C137.927 35.15 137.497 34.72 136.677 34.72C136.137 34.72 135.687 34.92 135.247 35.44L134.637 34.92C135.177 34.28 135.897 33.99 136.737 33.99C138.027 33.99 138.767 34.69 138.767 35.91V39H137.987ZM135.367 37.54C135.367 38.06 135.777 38.39 136.437 38.39C137.247 38.39 137.927 37.77 137.927 36.92V36.73H136.527C136.227 36.73 135.887 36.77 135.647 36.94C135.467 37.07 135.367 37.27 135.367 37.54ZM140.138 39V34.07H140.978V39H140.138ZM140.058 33.18V32.03H141.058V33.18H140.058ZM143.394 39.08C142.794 39.08 142.384 38.72 142.384 37.91V32.03H143.224V37.75C143.224 38.14 143.394 38.3 143.664 38.3C143.784 38.3 143.934 38.27 144.094 38.22V38.94C143.864 39.03 143.594 39.08 143.394 39.08Z" fill="white"/>
</svg>
